<?xml version="1.0" standalone="no"?>
<!DOCTYPE svg PUBLIC "-//W3C//DTD SVG 20010904//EN"
 "http://www.w3.org/TR/2001/REC-SVG-20010904/DTD/svg10.dtd">
<svg version="1.0" xmlns="http://www.w3.org/2000/svg"
 width="512.000000pt" height="512.000000pt" viewBox="0 0 512.000000 512.000000"
 preserveAspectRatio="xMidYMid meet">
<metadata>
Created by potrace 1.14, written by Peter Selinger 2001-2017
</metadata>
<g transform="translate(0.000000,512.000000) scale(0.100000,-0.100000)"
fill="#000000" stroke="none">
<path d="M2236 5104 c-347 -46 -718 -177 -1016 -358 -334 -204 -662 -535 -860
-868 -166 -279 -283 -604 -335 -928 -26 -160 -31 -521 -11 -690 44 -362 172
-731 360 -1040 204 -334 535 -662 868 -860 279 -166 604 -283 928 -335 160
-26 521 -31 690 -11 362 44 731 172 1040 360 334 204 662 535 860 868 166 279
283 604 335 928 26 160 31 521 11 690 -44 362 -172 731 -360 1040 -204 334
-535 662 -868 860 -279 166 -603 283 -928 335 -146 24 -565 29 -714 9z"/>
</g>
</svg>
