<?xml version="1.0" encoding="utf-8"?>
<!-- Generator: Adobe Illustrator 27.4.1, SVG Export Plug-In . SVG Version: 6.00 Build 0)  -->
<svg version="1.1" id="Livello_1" xmlns="http://www.w3.org/2000/svg" xmlns:xlink="http://www.w3.org/1999/xlink" x="0px" y="0px"
	 viewBox="0 0 180.38 181.21" style="enable-background:new 0 0 180.38 181.21;" xml:space="preserve">
<style type="text/css">
	.st0{clip-path:url(#SVGID_00000075122347815570433210000014022556240414443653_);fill:#E41513;}
	.st1{clip-path:url(#SVGID_00000075122347815570433210000014022556240414443653_);fill:none;stroke:#E41513;stroke-width:2.056;}
	.st2{fill:none;stroke:#E41513;stroke-width:2.056;}
	.st3{clip-path:url(#SVGID_00000137814145688705692010000010647993354203368065_);fill:none;stroke:#E41513;stroke-width:2.056;}
	.st4{clip-path:url(#SVGID_00000099640141251873279520000012641317081326155955_);fill:none;stroke:#E41513;stroke-width:2.056;}
</style>
<g>
	<defs>
		<rect id="SVGID_1_" y="0" width="180.38" height="181.2"/>
	</defs>
	<clipPath id="SVGID_00000028315916315671626770000013970762180193036463_">
		<use xlink:href="#SVGID_1_"  style="overflow:visible;"/>
	</clipPath>
	<path style="clip-path:url(#SVGID_00000028315916315671626770000013970762180193036463_);fill:#E41513;" d="M176.97,170.59
		c0,0.86-0.3,1.6-0.9,2.24c-0.6,0.64-1.39,0.96-2.37,0.96s-1.77-0.32-2.37-0.96c-0.6-0.64-0.9-1.39-0.9-2.24v-4.46
		c0.68-1.56,1.77-2.34,3.27-2.34c1,0,1.8,0.32,2.39,0.95c0.59,0.63,0.88,1.39,0.88,2.29V170.59z M173.7,161.62
		c-1.35,0-2.44,0.42-3.27,1.25v-3.59c0-0.9,0.3-1.68,0.9-2.34c0.6-0.66,1.39-0.99,2.37-0.99c1,0,1.8,0.33,2.39,0.99
		c0.59,0.66,0.88,1.44,0.88,2.34h2.24c0-1.11-0.24-2.07-0.72-2.88c-0.48-0.81-1.14-1.44-1.99-1.88c-0.85-0.44-1.78-0.66-2.8-0.66
		s-1.96,0.22-2.81,0.66c-0.84,0.44-1.51,1.06-1.99,1.88s-0.72,1.77-0.72,2.88v11.32c0,1.11,0.24,2.07,0.74,2.89
		c0.49,0.81,1.15,1.43,1.99,1.86c0.83,0.43,1.76,0.64,2.79,0.64c1.58,0,2.9-0.49,3.94-1.46c1.05-0.97,1.57-2.28,1.57-3.93v-3.56
		c0-1.09-0.24-2.05-0.72-2.87c-0.48-0.82-1.14-1.45-1.99-1.89C175.66,161.84,174.73,161.62,173.7,161.62 M156.46,170.56v-11.25
		c0-0.9,0.29-1.67,0.88-2.31c0.59-0.64,1.38-0.96,2.39-0.96c1,0,1.8,0.33,2.39,0.98c0.59,0.65,0.88,1.42,0.88,2.29v11.25
		c0,0.88-0.29,1.64-0.88,2.28c-0.59,0.64-1.38,0.96-2.39,0.96c-1,0-1.8-0.32-2.39-0.95C156.75,172.22,156.46,171.46,156.46,170.56
		 M154.21,159.28v11.32c0,1.11,0.24,2.07,0.74,2.89c0.49,0.81,1.15,1.43,1.99,1.86c0.83,0.43,1.76,0.64,2.79,0.64
		c1.58,0,2.9-0.49,3.94-1.46c1.05-0.97,1.57-2.28,1.57-3.93v-11.32c0-1.11-0.24-2.07-0.72-2.88c-0.48-0.81-1.14-1.44-1.99-1.88
		c-0.84-0.44-1.78-0.66-2.8-0.66c-1.03,0-1.96,0.22-2.8,0.66c-0.85,0.44-1.51,1.06-1.99,1.88S154.21,158.17,154.21,159.28
		 M143.57,175.95c0.56,0,1.03-0.2,1.41-0.59c0.39-0.4,0.58-0.87,0.58-1.43c0-0.55-0.19-1.03-0.58-1.41
		c-0.38-0.39-0.85-0.58-1.41-0.58c-0.53,0-1,0.19-1.39,0.58c-0.4,0.38-0.59,0.85-0.59,1.41c0,0.56,0.2,1.03,0.59,1.43
		C142.57,175.75,143.04,175.95,143.57,175.95 M137.71,167.84h-2.24v-5.39h-2.24v5.39h-4.62c2.37-5.13,3.88-9.7,4.52-13.72h-2.31
		c-0.62,4.06-2.32,8.87-5.1,14.43v1.47h7.5v5.71h2.24v-5.71h2.24V167.84z M67.54,156.3v-2.18H56.99v11.09l2.21,0.58
		c0.24-0.96,0.6-1.76,1.09-2.39c0.49-0.63,1.19-0.95,2.08-0.95c0.88,0,1.58,0.32,2.12,0.96c0.53,0.64,0.8,1.43,0.8,2.37v5
		c0,0.79-0.3,1.49-0.9,2.1c-0.6,0.61-1.4,0.91-2.4,0.91c-0.81,0-1.49-0.21-2.04-0.64c-0.54-0.43-0.92-1.04-1.14-1.83l-2.15,0.58
		c0.21,1.28,0.81,2.28,1.8,3c0.98,0.72,2.16,1.07,3.53,1.07c1.6,0,2.93-0.49,3.97-1.46c1.05-0.97,1.57-2.28,1.57-3.93v-4.9
		c0-1.62-0.49-2.92-1.47-3.88c-0.98-0.96-2.22-1.44-3.72-1.44c-1.24,0-2.27,0.34-3.11,1.02v-5.1H67.54z M45.16,170.56v-11.25
		c0-0.9,0.29-1.67,0.88-2.31c0.59-0.64,1.38-0.96,2.39-0.96c1,0,1.8,0.33,2.39,0.98c0.59,0.65,0.88,1.42,0.88,2.29v11.25
		c0,0.88-0.29,1.64-0.88,2.28c-0.59,0.64-1.38,0.96-2.39,0.96c-1.01,0-1.8-0.32-2.39-0.95C45.46,172.22,45.16,171.46,45.16,170.56
		 M42.92,159.28v11.32c0,1.11,0.25,2.07,0.74,2.89c0.49,0.81,1.15,1.43,1.99,1.86c0.83,0.43,1.76,0.64,2.79,0.64
		c1.58,0,2.9-0.49,3.94-1.46c1.05-0.97,1.57-2.28,1.57-3.93v-11.32c0-1.11-0.24-2.07-0.72-2.88s-1.14-1.44-1.99-1.88
		c-0.85-0.44-1.78-0.66-2.81-0.66s-1.96,0.22-2.81,0.66c-0.84,0.44-1.51,1.06-1.99,1.88C43.16,157.2,42.92,158.17,42.92,159.28
		 M32.28,175.95c0.56,0,1.03-0.2,1.41-0.59c0.39-0.4,0.58-0.87,0.58-1.43c0-0.55-0.19-1.03-0.58-1.41
		c-0.38-0.39-0.85-0.58-1.41-0.58c-0.53,0-1,0.19-1.39,0.58c-0.4,0.38-0.59,0.85-0.59,1.41c0,0.56,0.2,1.03,0.59,1.43
		C31.28,175.75,31.74,175.95,32.28,175.95 M15.03,154.12v2.18h8.72c-0.11,1.05-0.36,2.02-0.77,2.92c-0.41,0.9-1.05,2.09-1.92,3.59
		c-0.15,0.26-0.31,0.52-0.47,0.8c-0.16,0.28-0.33,0.58-0.5,0.9c-1.07,1.86-1.78,3.63-2.13,5.32c-0.35,1.69-0.53,3.65-0.53,5.9h2.24
		c0-1.97,0.13-3.72,0.4-5.26c0.27-1.54,0.89-3.16,1.88-4.87l1.12-1.86c0.66-1.07,1.19-1.98,1.59-2.72c0.4-0.75,0.73-1.59,1.01-2.53
		c0.28-0.94,0.42-1.96,0.42-3.05v-1.31H15.03z M7.73,166.43c1.15-0.92,2.02-1.65,2.6-2.18c0.58-0.53,1.07-1.19,1.48-1.97
		s0.61-1.69,0.61-2.74c0-1.22-0.26-2.25-0.78-3.09c-0.52-0.84-1.22-1.48-2.08-1.89c-0.86-0.42-1.81-0.62-2.84-0.62
		c-1.69,0-3.06,0.51-4.12,1.54s-1.59,2.39-1.59,4.1h2.24c0-1,0.31-1.83,0.93-2.48c0.62-0.65,1.46-0.98,2.53-0.98
		s1.91,0.32,2.53,0.95c0.62,0.63,0.93,1.44,0.93,2.42c0,0.64-0.14,1.22-0.42,1.73c-0.28,0.51-0.66,1-1.14,1.46
		c-0.48,0.46-1.21,1.08-2.2,1.88c-1.2,0.96-2.15,1.82-2.87,2.58c-0.72,0.76-1.31,1.73-1.78,2.9c-0.47,1.18-0.71,2.62-0.71,4.33v1.38
		h11.09v-2.18H3.3c0.02-1.09,0.2-2.02,0.53-2.8c0.33-0.78,0.8-1.48,1.39-2.1C5.82,168.02,6.66,167.28,7.73,166.43"/>
	<path style="clip-path:url(#SVGID_00000028315916315671626770000013970762180193036463_);fill:#E41513;" d="M176.33,102.51
		c0.64-0.36,1.19-0.95,1.64-1.76c0.45-0.81,0.67-1.73,0.67-2.76c0-0.92-0.19-1.81-0.58-2.68c-0.38-0.87-0.98-1.58-1.79-2.15
		c-0.81-0.57-1.82-0.85-3.01-0.85c-1.15,0-2.13,0.28-2.93,0.85c-0.8,0.57-1.4,1.28-1.8,2.15c-0.39,0.87-0.59,1.75-0.59,2.64h2.24
		c0.02-0.96,0.33-1.79,0.93-2.5c0.6-0.71,1.33-1.06,2.21-1.06c0.85,0,1.58,0.37,2.18,1.11c0.6,0.74,0.9,1.57,0.9,2.48
		c0,0.96-0.31,1.79-0.93,2.5c-0.62,0.71-1.42,1.06-2.4,1.06h-1.51v2.18h1.51c0.71,0,1.36,0.18,1.96,0.54
		c0.6,0.36,1.08,0.88,1.44,1.54c0.36,0.66,0.54,1.4,0.54,2.21c0,0.79-0.17,1.52-0.51,2.18c-0.34,0.66-0.8,1.19-1.36,1.57
		c-0.57,0.38-1.18,0.58-1.84,0.58c-0.81,0-1.54-0.27-2.18-0.82c-0.64-0.55-1.08-1.19-1.31-1.94l-2.15,0.58
		c0.36,1.26,1.06,2.29,2.1,3.08c1.04,0.79,2.22,1.19,3.54,1.19c1.18,0,2.22-0.3,3.12-0.9c0.91-0.6,1.61-1.39,2.1-2.37
		c0.49-0.98,0.74-2.03,0.74-3.14c0-1.28-0.29-2.43-0.87-3.43C177.81,103.59,177.12,102.89,176.33,102.51 M160.75,104.88
		c1.15-0.92,2.02-1.65,2.6-2.18c0.58-0.53,1.07-1.19,1.48-1.97c0.4-0.78,0.61-1.69,0.61-2.74c0-1.22-0.26-2.25-0.79-3.09
		c-0.52-0.84-1.22-1.48-2.08-1.89c-0.87-0.42-1.81-0.62-2.84-0.62c-1.69,0-3.06,0.51-4.12,1.54c-1.06,1.03-1.59,2.39-1.59,4.1h2.24
		c0-1,0.31-1.83,0.93-2.48s1.46-0.98,2.53-0.98c1.07,0,1.91,0.32,2.53,0.95c0.62,0.63,0.93,1.44,0.93,2.42
		c0,0.64-0.14,1.22-0.42,1.73s-0.66,1-1.14,1.46c-0.48,0.46-1.21,1.08-2.2,1.88c-1.2,0.96-2.15,1.82-2.87,2.58
		c-0.72,0.76-1.31,1.73-1.78,2.9c-0.47,1.18-0.7,2.62-0.7,4.33v1.38h11.09V112h-8.85c0.02-1.09,0.2-2.02,0.53-2.81
		c0.33-0.78,0.8-1.48,1.39-2.1S159.68,105.74,160.75,104.88 M142.55,109.02V97.77c0-0.9,0.29-1.67,0.88-2.31s1.38-0.96,2.39-0.96
		c1,0,1.8,0.33,2.39,0.98s0.88,1.42,0.88,2.29v11.25c0,0.88-0.29,1.64-0.88,2.28s-1.38,0.96-2.39,0.96c-1.01,0-1.8-0.32-2.39-0.95
		C142.84,110.68,142.55,109.91,142.55,109.02 M140.3,97.73v11.32c0,1.11,0.24,2.07,0.74,2.88c0.49,0.81,1.15,1.43,1.99,1.86
		c0.83,0.43,1.76,0.64,2.79,0.64c1.58,0,2.9-0.48,3.94-1.46c1.05-0.97,1.57-2.28,1.57-3.93V97.73c0-1.11-0.24-2.07-0.72-2.89
		c-0.48-0.81-1.14-1.44-1.99-1.88c-0.84-0.44-1.78-0.66-2.8-0.66s-1.96,0.22-2.81,0.66c-0.84,0.44-1.51,1.06-1.99,1.88
		C140.54,95.66,140.3,96.62,140.3,97.73 M132.93,104.88c1.15-0.92,2.02-1.65,2.6-2.18c0.58-0.53,1.07-1.19,1.47-1.97
		c0.41-0.78,0.61-1.69,0.61-2.74c0-1.22-0.26-2.25-0.79-3.09c-0.52-0.84-1.22-1.48-2.08-1.89c-0.87-0.42-1.81-0.62-2.84-0.62
		c-1.69,0-3.06,0.51-4.12,1.54c-1.06,1.03-1.59,2.39-1.59,4.1h2.24c0-1,0.31-1.83,0.93-2.48s1.46-0.98,2.53-0.98
		c1.07,0,1.91,0.32,2.53,0.95c0.62,0.63,0.93,1.44,0.93,2.42c0,0.64-0.14,1.22-0.42,1.73c-0.28,0.51-0.66,1-1.14,1.46
		c-0.48,0.46-1.21,1.08-2.2,1.88c-1.2,0.96-2.15,1.82-2.87,2.58c-0.72,0.76-1.31,1.73-1.78,2.9c-0.47,1.18-0.71,2.62-0.71,4.33v1.38
		h11.09V112h-8.85c0.02-1.09,0.2-2.02,0.53-2.81c0.33-0.78,0.8-1.48,1.39-2.1C131.03,106.47,131.86,105.74,132.93,104.88
		 M110.11,92.57h-2.4l-6.32,10.48V92.57h-2.24v21.61h2.24v-7.12l2.05-3.37l4.1,10.48h2.37l-5.07-12.85L110.11,92.57z M85.33,114.18
		h10.22V112h-7.98v-8.17h5.96v-2.18h-5.96v-6.89h7.98v-2.18H85.33V114.18z M71.42,114.18h10.23V112h-7.98v-8.17h5.96v-2.18h-5.96
		v-6.89h7.98v-2.18H71.42V114.18z M66.61,92.57l-1.31,15.61l-2.12-9.49h-1.83l-2.12,9.39l-1.31-15.51h-2.08l2.05,21.61h2.12
		l2.24-10.74l2.28,10.74h2.11l2.08-21.61H66.61z M33.34,114.18h2.24V94.75h4.65v-2.18H28.69v2.18h4.65V114.18z M17.57,94.75h3.08
		c0.9,0,1.66,0.32,2.29,0.96c0.63,0.64,0.95,1.51,0.95,2.6c0,1.09-0.3,1.95-0.9,2.6c-0.6,0.64-1.29,0.96-2.08,0.96h-3.33V94.75z
		 M26.16,98.31c0-1.07-0.22-2.04-0.66-2.92c-0.44-0.88-1.06-1.57-1.88-2.07s-1.77-0.75-2.89-0.75h-5.45v21.61h2.24l0.03-10.13h2.92
		l3.05,10.13h2.24l-3.08-10.45c1.09-0.39,1.94-1.06,2.55-2.04C25.85,100.72,26.16,99.59,26.16,98.31 M4.62,106.2L6.6,97l2.05,9.2
		H4.62z M10.42,114.18h2.37L7.6,92.57H5.64l-5.16,21.57l2.4,0.03l1.28-5.96H9.1L10.42,114.18z"/>
	<path style="clip-path:url(#SVGID_00000028315916315671626770000013970762180193036463_);fill:#E41513;" d="M171.55,75.42l1.99-9.2
		l2.05,9.2H171.55z M177.36,83.41h2.37l-5.19-21.6h-1.95l-5.16,21.57l2.4,0.03l1.28-5.96h4.94L177.36,83.41z M148.96,61.8v16.16
		L142.8,61.8h-2.47v21.6h2.21v-15.9l6.19,15.9h2.44V61.8H148.96z M104.02,81.48c-0.98,0-1.77-0.32-2.37-0.95
		c-0.6-0.63-0.9-1.38-0.9-2.26V66.96c0-0.88,0.3-1.64,0.91-2.28s1.39-0.96,2.36-0.96s1.75,0.33,2.36,0.98
		c0.61,0.65,0.91,1.41,0.91,2.26v11.32c0,0.85-0.3,1.6-0.91,2.24C105.76,81.16,104.98,81.48,104.02,81.48 M104.02,83.66
		c1.58,0,2.89-0.48,3.94-1.46c1.05-0.97,1.57-2.28,1.57-3.93V66.96c0-1.11-0.24-2.07-0.74-2.89c-0.49-0.81-1.15-1.44-1.99-1.88
		c-0.83-0.44-1.76-0.66-2.79-0.66c-1.03,0-1.96,0.22-2.81,0.67c-0.84,0.45-1.51,1.08-1.99,1.89c-0.48,0.81-0.72,1.76-0.72,2.85
		v11.32c0,1.09,0.25,2.05,0.74,2.87c0.49,0.82,1.15,1.45,1.99,1.88C102.06,83.45,102.99,83.66,104.02,83.66 M79.56,61.8l-3.37,11.86
		L72.86,61.8h-2.47v21.6h2.18V68.15l2.82,9.78h1.64l2.79-9.97v15.45H82V61.8H79.56z M57.51,83.41h10.23v-2.18h-7.98v-8.17h5.96
		v-2.18h-5.96v-6.89h7.98V61.8H57.51V83.41z"/>
	<path style="clip-path:url(#SVGID_00000028315916315671626770000013970762180193036463_);fill:#E41513;" d="M171.55,44.65l1.99-9.2
		l2.05,9.2H171.55z M177.36,52.63h2.37l-5.19-21.61h-1.96l-5.16,21.57l2.4,0.03l1.28-5.96h4.94L177.36,52.63z M154.89,52.63h10.23
		v-2.18h-7.98v-8.17h5.96V40.1h-5.96v-6.89h7.98v-2.18h-10.23V52.63z M148.96,31.03v16.16l-6.15-16.16h-2.47v21.61h2.21v-15.9
		l6.19,15.9h2.44V31.03H148.96z M129.82,44.65l1.99-9.2l2.05,9.2H129.82z M135.62,52.63h2.37l-5.19-21.61h-1.96l-5.16,21.57
		l2.4,0.03l1.28-5.96h4.94L135.62,52.63z M114.95,33.21h3.08c0.9,0,1.66,0.32,2.29,0.96c0.63,0.64,0.95,1.51,0.95,2.6
		c0,1.09-0.3,1.96-0.9,2.6c-0.6,0.64-1.29,0.96-2.08,0.96h-3.33V33.21z M123.54,36.77c0-1.07-0.22-2.04-0.66-2.92
		c-0.44-0.88-1.06-1.57-1.88-2.07c-0.81-0.5-1.77-0.75-2.88-0.75h-5.45v21.61h2.24l0.03-10.13h2.92l3.05,10.13h2.24l-3.08-10.45
		c1.09-0.38,1.94-1.06,2.55-2.04C123.23,39.18,123.54,38.05,123.54,36.77 M104.02,50.71c-0.98,0-1.77-0.32-2.37-0.95
		c-0.6-0.63-0.9-1.38-0.9-2.26V36.19c0-0.88,0.3-1.63,0.91-2.28c0.61-0.64,1.39-0.96,2.36-0.96c0.96,0,1.75,0.33,2.36,0.98
		c0.61,0.65,0.91,1.41,0.91,2.26v11.32c0,0.85-0.3,1.6-0.91,2.24C105.76,50.39,104.98,50.71,104.02,50.71 M104.02,52.89
		c1.58,0,2.9-0.49,3.94-1.46c1.05-0.97,1.57-2.28,1.57-3.93V36.19c0-1.11-0.25-2.07-0.74-2.88c-0.49-0.81-1.15-1.44-1.99-1.88
		c-0.83-0.44-1.76-0.66-2.79-0.66c-1.03,0-1.96,0.22-2.81,0.67c-0.84,0.45-1.51,1.08-1.99,1.89c-0.48,0.81-0.72,1.76-0.72,2.85
		v11.32c0,1.09,0.25,2.05,0.74,2.87c0.49,0.82,1.15,1.45,1.99,1.88C102.06,52.68,102.99,52.89,104.02,52.89 M87.22,40.32v-7.12h3.08
		c0.9,0,1.66,0.32,2.29,0.96c0.63,0.64,0.95,1.51,0.95,2.6c0,1.09-0.3,1.96-0.9,2.6c-0.6,0.64-1.29,0.96-2.08,0.96H87.22z
		 M84.94,52.63h2.24l0.03-10.13h3.17c1.11,0,2.07-0.25,2.89-0.75c0.81-0.5,1.44-1.19,1.88-2.07c0.44-0.88,0.66-1.85,0.66-2.92
		c0-1.07-0.22-2.04-0.66-2.92c-0.44-0.88-1.06-1.57-1.88-2.07c-0.81-0.5-1.77-0.75-2.89-0.75h-5.45V52.63z M79.56,31.03l-3.37,11.86
		l-3.33-11.86h-2.47v21.61h2.18V37.38l2.82,9.78h1.64l2.79-9.97v15.45h2.18V31.03H79.56z M57.51,52.63h10.22v-2.18h-7.98v-8.17h5.96
		V40.1h-5.96v-6.89h7.98v-2.18H57.51V52.63z M47.25,52.63h2.24V33.21h4.65v-2.18H42.6v2.18h4.65V52.63z M37.66,31.03v16.16
		l-6.15-16.16h-2.47v21.61h2.21v-15.9l6.19,15.9h2.44V31.03H37.66z M20.55,50.71c-0.98,0-1.77-0.32-2.37-0.95s-0.9-1.38-0.9-2.26
		V36.19c0-0.88,0.3-1.63,0.91-2.28c0.61-0.64,1.39-0.96,2.36-0.96c0.96,0,1.75,0.33,2.36,0.98c0.61,0.65,0.91,1.41,0.91,2.26v11.32
		c0,0.85-0.31,1.6-0.91,2.24C22.29,50.39,21.51,50.71,20.55,50.71 M20.55,52.89c1.58,0,2.9-0.49,3.94-1.46
		c1.05-0.97,1.57-2.28,1.57-3.93V36.19c0-1.11-0.25-2.07-0.74-2.88c-0.49-0.81-1.15-1.44-1.99-1.88s-1.76-0.66-2.79-0.66
		c-1.03,0-1.96,0.22-2.81,0.67c-0.84,0.45-1.51,1.08-1.99,1.89c-0.48,0.81-0.72,1.76-0.72,2.85v11.32c0,1.09,0.25,2.05,0.74,2.87
		c0.49,0.82,1.15,1.45,1.99,1.88C18.59,52.68,19.52,52.89,20.55,52.89 M6.86,52.89c1.58,0,2.9-0.49,3.94-1.46
		c1.05-0.97,1.57-2.29,1.57-3.96v-0.42h-2.24v0.42c0,0.9-0.3,1.66-0.9,2.29c-0.6,0.63-1.39,0.95-2.37,0.95s-1.77-0.32-2.37-0.96
		c-0.6-0.64-0.9-1.4-0.9-2.28V36.19c0-0.88,0.31-1.63,0.91-2.28c0.61-0.64,1.39-0.96,2.36-0.96s1.75,0.33,2.36,0.98
		c0.61,0.65,0.91,1.41,0.91,2.26v0.39h2.24v-0.39c0-1.67-0.52-2.99-1.55-3.96c-1.04-0.97-2.36-1.46-3.96-1.46
		c-1.03,0-1.96,0.22-2.8,0.67c-0.84,0.45-1.51,1.08-1.99,1.89c-0.48,0.81-0.72,1.76-0.72,2.85v11.28c0,1.11,0.25,2.08,0.74,2.9
		c0.49,0.82,1.15,1.45,1.99,1.88C4.9,52.68,5.83,52.89,6.86,52.89"/>
	<path style="clip-path:url(#SVGID_00000028315916315671626770000013970762180193036463_);fill:#E41513;" d="M114.95,2.44h3.08
		c0.9,0,1.66,0.32,2.29,0.96c0.63,0.64,0.95,1.51,0.95,2.6c0,1.09-0.3,1.95-0.9,2.6c-0.6,0.64-1.29,0.96-2.08,0.96h-3.33V2.44z
		 M123.54,5.99c0-1.07-0.22-2.04-0.66-2.92c-0.44-0.88-1.06-1.57-1.88-2.07c-0.81-0.5-1.77-0.75-2.88-0.75h-5.45v21.61h2.24
		l0.03-10.13h2.92l3.05,10.13h2.24l-3.08-10.45c1.09-0.38,1.94-1.06,2.55-2.04C123.23,8.4,123.54,7.28,123.54,5.99 M6.86,22.12
		c1.58,0,2.9-0.49,3.94-1.46c1.05-0.97,1.57-2.29,1.57-3.96v-0.42h-2.24v0.42c0,0.9-0.3,1.66-0.9,2.29
		c-0.6,0.63-1.39,0.95-2.37,0.95s-1.77-0.32-2.37-0.96c-0.6-0.64-0.9-1.4-0.9-2.28V5.42c0-0.88,0.31-1.63,0.91-2.28
		C5.11,2.5,5.9,2.18,6.86,2.18s1.75,0.33,2.36,0.98c0.61,0.65,0.91,1.41,0.91,2.26V5.8h2.24V5.42c0-1.67-0.52-2.99-1.55-3.96
		C9.78,0.49,8.46,0,6.86,0C5.83,0,4.9,0.22,4.05,0.67C3.21,1.12,2.55,1.75,2.07,2.56C1.59,3.38,1.35,4.33,1.35,5.42V16.7
		c0,1.11,0.25,2.08,0.74,2.9c0.49,0.82,1.15,1.45,1.99,1.88C4.9,21.9,5.83,22.12,6.86,22.12"/>
	
		<line style="clip-path:url(#SVGID_00000028315916315671626770000013970762180193036463_);fill:none;stroke:#E41513;stroke-width:2.056;" x1="0" y1="26.44" x2="13.8" y2="26.44"/>
	
		<line style="clip-path:url(#SVGID_00000028315916315671626770000013970762180193036463_);fill:none;stroke:#E41513;stroke-width:2.056;" x1="0" y1="57.19" x2="180.38" y2="57.19"/>
</g>
<line class="st2" x1="55.64" y1="87.93" x2="83.54" y2="87.93"/>
<g>
	<defs>
		<rect id="SVGID_00000052805460098439714770000003360303531058576036_" y="0" width="180.38" height="181.2"/>
	</defs>
	<clipPath id="SVGID_00000169532494323747890970000014437917491131584157_">
		<use xlink:href="#SVGID_00000052805460098439714770000003360303531058576036_"  style="overflow:visible;"/>
	</clipPath>
	
		<line style="clip-path:url(#SVGID_00000169532494323747890970000014437917491131584157_);fill:none;stroke:#E41513;stroke-width:2.056;" x1="0" y1="118.68" x2="125.19" y2="118.68"/>
	
		<line style="clip-path:url(#SVGID_00000169532494323747890970000014437917491131584157_);fill:none;stroke:#E41513;stroke-width:2.056;" x1="69.59" y1="180.18" x2="125.19" y2="180.18"/>
</g>
<line class="st2" x1="97.49" y1="87.93" x2="111.29" y2="87.93"/>
<line class="st2" x1="139.04" y1="87.93" x2="153.08" y2="87.93"/>
<g>
	<defs>
		<rect id="SVGID_00000101077683025375731560000000605412458919489209_" y="0" width="180.38" height="181.2"/>
	</defs>
	<clipPath id="SVGID_00000131342698247619207370000000193382592237307579_">
		<use xlink:href="#SVGID_00000101077683025375731560000000605412458919489209_"  style="overflow:visible;"/>
	</clipPath>
	
		<line style="clip-path:url(#SVGID_00000131342698247619207370000000193382592237307579_);fill:none;stroke:#E41513;stroke-width:2.056;" x1="166.57" y1="87.93" x2="180.38" y2="87.93"/>
</g>
</svg>
