<?xml version="1.0" encoding="utf-8"?>
<!-- Generator: Adobe Illustrator 23.1.1, SVG Export Plug-In . SVG Version: 6.00 Build 0)  -->
<svg version="1.1" id="Livello_1" xmlns="http://www.w3.org/2000/svg" xmlns:xlink="http://www.w3.org/1999/xlink" x="0px" y="0px"
	 viewBox="0 0 180.4 181.2" style="enable-background:new 0 0 180.4 181.2;" xml:space="preserve">
<style type="text/css">
	.st0{fill:#FF0000;}
</style>
<path class="st0" d="M177.2,171c0,0.9-0.3,1.6-0.9,2.2c-0.6,0.6-1.4,1-2.4,1c-1,0-1.8-0.3-2.4-1c-0.6-0.6-0.9-1.4-0.9-2.2v-4.5
	c0.7-1.6,1.8-2.3,3.3-2.3c1,0,1.8,0.3,2.4,0.9c0.6,0.6,0.9,1.4,0.9,2.3V171z M173.9,162c-1.3,0-2.4,0.4-3.3,1.2v-3.6
	c0-0.9,0.3-1.7,0.9-2.3c0.6-0.7,1.4-1,2.4-1c1,0,1.8,0.3,2.4,1c0.6,0.7,0.9,1.4,0.9,2.3h2.2c0-1.1-0.2-2.1-0.7-2.9
	c-0.5-0.8-1.1-1.4-2-1.9c-0.8-0.4-1.8-0.7-2.8-0.7s-2,0.2-2.8,0.7c-0.8,0.4-1.5,1.1-2,1.9c-0.5,0.8-0.7,1.8-0.7,2.9V171
	c0,1.1,0.2,2.1,0.7,2.9c0.5,0.8,1.2,1.4,2,1.9c0.8,0.4,1.8,0.6,2.8,0.6c1.6,0,2.9-0.5,3.9-1.5c1-1,1.6-2.3,1.6-3.9v-3.6
	c0-1.1-0.2-2-0.7-2.9c-0.5-0.8-1.1-1.5-2-1.9C175.9,162.2,175,162,173.9,162 M156.7,171v-11.3c0-0.9,0.3-1.7,0.9-2.3
	c0.6-0.6,1.4-1,2.4-1c1,0,1.8,0.3,2.4,1c0.6,0.7,0.9,1.4,0.9,2.3V171c0,0.9-0.3,1.6-0.9,2.3c-0.6,0.6-1.4,1-2.4,1
	c-1,0-1.8-0.3-2.4-0.9C157,172.6,156.7,171.9,156.7,171 M154.4,159.7V171c0,1.1,0.2,2.1,0.7,2.9c0.5,0.8,1.2,1.4,2,1.9
	c0.8,0.4,1.8,0.6,2.8,0.6c1.6,0,2.9-0.5,3.9-1.5c1-1,1.6-2.3,1.6-3.9v-11.3c0-1.1-0.2-2.1-0.7-2.9c-0.5-0.8-1.1-1.4-2-1.9
	c-0.8-0.4-1.8-0.7-2.8-0.7c-1,0-2,0.2-2.8,0.7c-0.8,0.4-1.5,1.1-2,1.9C154.7,157.6,154.4,158.6,154.4,159.7 M143.8,176.3
	c0.6,0,1-0.2,1.4-0.6c0.4-0.4,0.6-0.9,0.6-1.4s-0.2-1-0.6-1.4c-0.4-0.4-0.9-0.6-1.4-0.6c-0.5,0-1,0.2-1.4,0.6
	c-0.4,0.4-0.6,0.9-0.6,1.4s0.2,1,0.6,1.4C142.8,176.2,143.3,176.3,143.8,176.3 M137.9,168.2h-2.2v-5.4h-2.2v5.4h-4.6
	c2.4-5.1,3.9-9.7,4.5-13.7H131c-0.6,4.1-2.3,8.9-5.1,14.4v1.5h7.5v5.7h2.2v-5.7h2.2V168.2z M67.8,156.7v-2.2H57.2v11.1l2.2,0.6
	c0.2-1,0.6-1.8,1.1-2.4c0.5-0.6,1.2-0.9,2.1-0.9c0.9,0,1.6,0.3,2.1,1c0.5,0.6,0.8,1.4,0.8,2.4v5c0,0.8-0.3,1.5-0.9,2.1
	c-0.6,0.6-1.4,0.9-2.4,0.9c-0.8,0-1.5-0.2-2-0.6c-0.5-0.4-0.9-1-1.1-1.8l-2.1,0.6c0.2,1.3,0.8,2.3,1.8,3c1,0.7,2.2,1.1,3.5,1.1
	c1.6,0,2.9-0.5,4-1.5c1-1,1.6-2.3,1.6-3.9v-4.9c0-1.6-0.5-2.9-1.5-3.9c-1-1-2.2-1.4-3.7-1.4c-1.2,0-2.3,0.3-3.1,1v-5.1H67.8z
	 M45.4,171v-11.3c0-0.9,0.3-1.7,0.9-2.3c0.6-0.6,1.4-1,2.4-1c1,0,1.8,0.3,2.4,1s0.9,1.4,0.9,2.3V171c0,0.9-0.3,1.6-0.9,2.3
	s-1.4,1-2.4,1c-1,0-1.8-0.3-2.4-0.9C45.7,172.6,45.4,171.9,45.4,171 M43.2,159.7V171c0,1.1,0.2,2.1,0.7,2.9c0.5,0.8,1.2,1.4,2,1.9
	c0.8,0.4,1.8,0.6,2.8,0.6c1.6,0,2.9-0.5,3.9-1.5c1-1,1.6-2.3,1.6-3.9v-11.3c0-1.1-0.2-2.1-0.7-2.9c-0.5-0.8-1.1-1.4-2-1.9
	c-0.8-0.4-1.8-0.7-2.8-0.7s-2,0.2-2.8,0.7c-0.8,0.4-1.5,1.1-2,1.9C43.4,157.6,43.2,158.6,43.2,159.7 M32.5,176.3
	c0.6,0,1-0.2,1.4-0.6c0.4-0.4,0.6-0.9,0.6-1.4s-0.2-1-0.6-1.4c-0.4-0.4-0.9-0.6-1.4-0.6c-0.5,0-1,0.2-1.4,0.6
	c-0.4,0.4-0.6,0.9-0.6,1.4s0.2,1,0.6,1.4C31.5,176.2,32,176.3,32.5,176.3 M15.3,154.5v2.2H24c-0.1,1-0.4,2-0.8,2.9
	c-0.4,0.9-1,2.1-1.9,3.6c-0.1,0.3-0.3,0.5-0.5,0.8c-0.2,0.3-0.3,0.6-0.5,0.9c-1.1,1.9-1.8,3.6-2.1,5.3c-0.4,1.7-0.5,3.7-0.5,5.9h2.2
	c0-2,0.1-3.7,0.4-5.3c0.3-1.5,0.9-3.2,1.9-4.9l1.1-1.9c0.7-1.1,1.2-2,1.6-2.7c0.4-0.7,0.7-1.6,1-2.5c0.3-0.9,0.4-2,0.4-3v-1.3H15.3z
	 M8,166.8c1.2-0.9,2-1.6,2.6-2.2c0.6-0.5,1.1-1.2,1.5-2c0.4-0.8,0.6-1.7,0.6-2.7c0-1.2-0.3-2.2-0.8-3.1c-0.5-0.8-1.2-1.5-2.1-1.9
	c-0.9-0.4-1.8-0.6-2.8-0.6c-1.7,0-3.1,0.5-4.1,1.5c-1.1,1-1.6,2.4-1.6,4.1h2.2c0-1,0.3-1.8,0.9-2.5c0.6-0.7,1.5-1,2.5-1
	s1.9,0.3,2.5,0.9c0.6,0.6,0.9,1.4,0.9,2.4c0,0.6-0.1,1.2-0.4,1.7c-0.3,0.5-0.7,1-1.1,1.5c-0.5,0.5-1.2,1.1-2.2,1.9
	c-1.2,1-2.2,1.8-2.9,2.6c-0.7,0.8-1.3,1.7-1.8,2.9c-0.5,1.2-0.7,2.6-0.7,4.3v1.4h11.1v-2.2H3.5c0-1.1,0.2-2,0.5-2.8
	c0.3-0.8,0.8-1.5,1.4-2.1C6.1,168.4,6.9,167.7,8,166.8"/>
<path class="st0" d="M176.6,102.9c0.6-0.4,1.2-1,1.6-1.8c0.4-0.8,0.7-1.7,0.7-2.8c0-0.9-0.2-1.8-0.6-2.7c-0.4-0.9-1-1.6-1.8-2.1
	c-0.8-0.6-1.8-0.9-3-0.9c-1.2,0-2.1,0.3-2.9,0.9c-0.8,0.6-1.4,1.3-1.8,2.1c-0.4,0.9-0.6,1.7-0.6,2.6h2.2c0-1,0.3-1.8,0.9-2.5
	c0.6-0.7,1.3-1.1,2.2-1.1c0.9,0,1.6,0.4,2.2,1.1c0.6,0.7,0.9,1.6,0.9,2.5c0,1-0.3,1.8-0.9,2.5c-0.6,0.7-1.4,1.1-2.4,1.1h-1.5v2.2
	h1.5c0.7,0,1.4,0.2,2,0.5c0.6,0.4,1.1,0.9,1.4,1.5c0.4,0.7,0.5,1.4,0.5,2.2c0,0.8-0.2,1.5-0.5,2.2c-0.3,0.7-0.8,1.2-1.4,1.6
	c-0.6,0.4-1.2,0.6-1.8,0.6c-0.8,0-1.5-0.3-2.2-0.8c-0.6-0.5-1.1-1.2-1.3-1.9l-2.1,0.6c0.4,1.3,1.1,2.3,2.1,3.1
	c1,0.8,2.2,1.2,3.5,1.2c1.2,0,2.2-0.3,3.1-0.9s1.6-1.4,2.1-2.4c0.5-1,0.7-2,0.7-3.1c0-1.3-0.3-2.4-0.9-3.4
	C178,104,177.4,103.3,176.6,102.9 M161,105.3c1.2-0.9,2-1.6,2.6-2.2c0.6-0.5,1.1-1.2,1.5-2c0.4-0.8,0.6-1.7,0.6-2.7
	c0-1.2-0.3-2.2-0.8-3.1c-0.5-0.8-1.2-1.5-2.1-1.9c-0.9-0.4-1.8-0.6-2.8-0.6c-1.7,0-3.1,0.5-4.1,1.5c-1.1,1-1.6,2.4-1.6,4.1h2.2
	c0-1,0.3-1.8,0.9-2.5c0.6-0.7,1.5-1,2.5-1c1.1,0,1.9,0.3,2.5,0.9c0.6,0.6,0.9,1.4,0.9,2.4c0,0.6-0.1,1.2-0.4,1.7
	c-0.3,0.5-0.7,1-1.1,1.5c-0.5,0.5-1.2,1.1-2.2,1.9c-1.2,1-2.2,1.8-2.9,2.6c-0.7,0.8-1.3,1.7-1.8,2.9c-0.5,1.2-0.7,2.6-0.7,4.3v1.4
	h11.1v-2.2h-8.8c0-1.1,0.2-2,0.5-2.8c0.3-0.8,0.8-1.5,1.4-2.1C159.1,106.9,159.9,106.1,161,105.3 M142.8,109.4V98.2
	c0-0.9,0.3-1.7,0.9-2.3c0.6-0.6,1.4-1,2.4-1c1,0,1.8,0.3,2.4,1c0.6,0.7,0.9,1.4,0.9,2.3v11.3c0,0.9-0.3,1.6-0.9,2.3
	c-0.6,0.6-1.4,1-2.4,1c-1,0-1.8-0.3-2.4-0.9C143.1,111.1,142.8,110.3,142.8,109.4 M140.5,98.1v11.3c0,1.1,0.2,2.1,0.7,2.9
	c0.5,0.8,1.2,1.4,2,1.9c0.8,0.4,1.8,0.6,2.8,0.6c1.6,0,2.9-0.5,3.9-1.5c1-1,1.6-2.3,1.6-3.9V98.1c0-1.1-0.2-2.1-0.7-2.9
	c-0.5-0.8-1.1-1.4-2-1.9c-0.8-0.4-1.8-0.7-2.8-0.7s-2,0.2-2.8,0.7c-0.8,0.4-1.5,1.1-2,1.9C140.8,96.1,140.5,97,140.5,98.1
	 M133.2,105.3c1.2-0.9,2-1.6,2.6-2.2c0.6-0.5,1.1-1.2,1.5-2c0.4-0.8,0.6-1.7,0.6-2.7c0-1.2-0.3-2.2-0.8-3.1
	c-0.5-0.8-1.2-1.5-2.1-1.9c-0.9-0.4-1.8-0.6-2.8-0.6c-1.7,0-3.1,0.5-4.1,1.5c-1.1,1-1.6,2.4-1.6,4.1h2.2c0-1,0.3-1.8,0.9-2.5
	c0.6-0.7,1.5-1,2.5-1c1.1,0,1.9,0.3,2.5,0.9c0.6,0.6,0.9,1.4,0.9,2.4c0,0.6-0.1,1.2-0.4,1.7c-0.3,0.5-0.7,1-1.1,1.5
	c-0.5,0.5-1.2,1.1-2.2,1.9c-1.2,1-2.2,1.8-2.9,2.6c-0.7,0.8-1.3,1.7-1.8,2.9c-0.5,1.2-0.7,2.6-0.7,4.3v1.4h11.1v-2.2h-8.8
	c0-1.1,0.2-2,0.5-2.8c0.3-0.8,0.8-1.5,1.4-2.1S132.1,106.1,133.2,105.3 M110.3,93h-2.4l-6.3,10.5V93h-2.2v21.6h2.2v-7.1l2.1-3.4
	l4.1,10.5h2.4l-5.1-12.9L110.3,93z M85.6,114.6h10.2v-2.2h-8v-8.2h6V102h-6v-6.9h8V93H85.6V114.6z M71.7,114.6h10.2v-2.2h-8v-8.2h6
	V102h-6v-6.9h8V93H71.7V114.6z M66.8,93l-1.3,15.6l-2.1-9.5h-1.8l-2.1,9.4L58.2,93h-2.1l2.1,21.6h2.1l2.2-10.7l2.3,10.7h2.1L69,93
	H66.8z M33.6,114.6h2.2V95.2h4.6V93H28.9v2.2h4.6V114.6z M17.8,95.2h3.1c0.9,0,1.7,0.3,2.3,1c0.6,0.6,0.9,1.5,0.9,2.6
	c0,1.1-0.3,2-0.9,2.6c-0.6,0.6-1.3,1-2.1,1h-3.3V95.2z M26.4,98.7c0-1.1-0.2-2-0.7-2.9c-0.4-0.9-1.1-1.6-1.9-2.1
	C23,93.2,22.1,93,21,93h-5.4v21.6h2.2l0-10.1h2.9l3,10.1H26l-3.1-10.4c1.1-0.4,1.9-1.1,2.5-2C26.1,101.1,26.4,100,26.4,98.7
	 M4.9,106.6l2-9.2l2.1,9.2H4.9z M10.7,114.6H13L7.8,93h-2l-5.2,21.6l2.4,0l1.3-6h4.9L10.7,114.6z"/>
<path class="st0" d="M171.8,75.8l2-9.2l2.1,9.2H171.8z M177.6,83.8h2.4l-5.2-21.6h-2l-5.2,21.6l2.4,0l1.3-6h4.9L177.6,83.8z
	 M149.2,62.2v16.2L143,62.2h-2.5v21.6h2.2V67.9l6.2,15.9h2.4V62.2H149.2z M104.3,81.9c-1,0-1.8-0.3-2.4-0.9
	c-0.6-0.6-0.9-1.4-0.9-2.3V67.4c0-0.9,0.3-1.6,0.9-2.3c0.6-0.6,1.4-1,2.4-1s1.7,0.3,2.4,1c0.6,0.7,0.9,1.4,0.9,2.3v11.3
	c0,0.9-0.3,1.6-0.9,2.2C106,81.6,105.2,81.9,104.3,81.9 M104.3,84.1c1.6,0,2.9-0.5,3.9-1.5c1-1,1.6-2.3,1.6-3.9V67.4
	c0-1.1-0.2-2.1-0.7-2.9c-0.5-0.8-1.2-1.4-2-1.9c-0.8-0.4-1.8-0.7-2.8-0.7s-2,0.2-2.8,0.7c-0.8,0.4-1.5,1.1-2,1.9
	c-0.5,0.8-0.7,1.8-0.7,2.9v11.3c0,1.1,0.2,2,0.7,2.9c0.5,0.8,1.2,1.4,2,1.9C102.3,83.9,103.2,84.1,104.3,84.1 M79.8,62.2l-3.4,11.9
	l-3.3-11.9h-2.5v21.6h2.2V68.6l2.8,9.8h1.6l2.8-10v15.5h2.2V62.2H79.8z M57.7,83.8H68v-2.2h-8v-8.2h6v-2.2h-6v-6.9h8v-2.2H57.7V83.8
	z"/>
<path class="st0" d="M171.8,45.1l2-9.2l2.1,9.2H171.8z M177.6,53h2.4l-5.2-21.6h-2L167.7,53l2.4,0l1.3-6h4.9L177.6,53z M155.1,53
	h10.2v-2.2h-8v-8.2h6v-2.2h-6v-6.9h8v-2.2h-10.2V53z M149.2,31.4v16.2L143,31.4h-2.5V53h2.2V37.1L149,53h2.4V31.4H149.2z
	 M130.1,45.1l2-9.2l2.1,9.2H130.1z M135.9,53h2.4L133,31.4h-2L125.9,53l2.4,0l1.3-6h4.9L135.9,53z M115.2,33.6h3.1
	c0.9,0,1.7,0.3,2.3,1s0.9,1.5,0.9,2.6c0,1.1-0.3,2-0.9,2.6c-0.6,0.6-1.3,1-2.1,1h-3.3V33.6z M123.8,37.2c0-1.1-0.2-2-0.7-2.9
	c-0.4-0.9-1.1-1.6-1.9-2.1c-0.8-0.5-1.8-0.8-2.9-0.8h-5.4V53h2.2l0-10.1h2.9l3,10.1h2.2l-3.1-10.5c1.1-0.4,1.9-1.1,2.5-2
	C123.5,39.6,123.8,38.5,123.8,37.2 M104.3,51.1c-1,0-1.8-0.3-2.4-0.9c-0.6-0.6-0.9-1.4-0.9-2.3V36.6c0-0.9,0.3-1.6,0.9-2.3
	c0.6-0.6,1.4-1,2.4-1c1,0,1.7,0.3,2.4,1c0.6,0.7,0.9,1.4,0.9,2.3v11.3c0,0.9-0.3,1.6-0.9,2.2C106,50.8,105.2,51.1,104.3,51.1
	 M104.3,53.3c1.6,0,2.9-0.5,3.9-1.5c1-1,1.6-2.3,1.6-3.9V36.6c0-1.1-0.2-2.1-0.7-2.9c-0.5-0.8-1.2-1.4-2-1.9
	c-0.8-0.4-1.8-0.7-2.8-0.7c-1,0-2,0.2-2.8,0.7c-0.8,0.4-1.5,1.1-2,1.9c-0.5,0.8-0.7,1.8-0.7,2.9v11.3c0,1.1,0.2,2,0.7,2.9
	c0.5,0.8,1.2,1.4,2,1.9C102.3,53.1,103.2,53.3,104.3,53.3 M87.5,40.7v-7.1h3.1c0.9,0,1.7,0.3,2.3,1c0.6,0.6,0.9,1.5,0.9,2.6
	c0,1.1-0.3,2-0.9,2.6c-0.6,0.6-1.3,1-2.1,1H87.5z M85.2,53h2.2l0-10.1h3.2c1.1,0,2.1-0.3,2.9-0.8c0.8-0.5,1.4-1.2,1.9-2.1
	c0.4-0.9,0.7-1.8,0.7-2.9c0-1.1-0.2-2-0.7-2.9c-0.4-0.9-1.1-1.6-1.9-2.1c-0.8-0.5-1.8-0.8-2.9-0.8h-5.5V53z M79.8,31.4l-3.4,11.9
	l-3.3-11.9h-2.5V53h2.2V37.8l2.8,9.8h1.6l2.8-10V53h2.2V31.4H79.8z M57.7,53H68v-2.2h-8v-8.2h6v-2.2h-6v-6.9h8v-2.2H57.7V53z
	 M47.5,53h2.2V33.6h4.6v-2.2H42.8v2.2h4.6V53z M37.9,31.4v16.2l-6.2-16.2h-2.5V53h2.2V37.1L37.7,53h2.4V31.4H37.9z M20.8,51.1
	c-1,0-1.8-0.3-2.4-0.9c-0.6-0.6-0.9-1.4-0.9-2.3V36.6c0-0.9,0.3-1.6,0.9-2.3c0.6-0.6,1.4-1,2.4-1c1,0,1.7,0.3,2.4,1
	c0.6,0.7,0.9,1.4,0.9,2.3v11.3c0,0.9-0.3,1.6-0.9,2.2C22.5,50.8,21.7,51.1,20.8,51.1 M20.8,53.3c1.6,0,2.9-0.5,3.9-1.5
	c1-1,1.6-2.3,1.6-3.9V36.6c0-1.1-0.2-2.1-0.7-2.9c-0.5-0.8-1.2-1.4-2-1.9c-0.8-0.4-1.8-0.7-2.8-0.7s-2,0.2-2.8,0.7
	c-0.8,0.4-1.5,1.1-2,1.9c-0.5,0.8-0.7,1.8-0.7,2.9v11.3c0,1.1,0.2,2,0.7,2.9c0.5,0.8,1.2,1.4,2,1.9C18.8,53.1,19.8,53.3,20.8,53.3
	 M7.1,53.3c1.6,0,2.9-0.5,3.9-1.5c1-1,1.6-2.3,1.6-4v-0.4h-2.2v0.4c0,0.9-0.3,1.7-0.9,2.3c-0.6,0.6-1.4,0.9-2.4,0.9
	c-1,0-1.8-0.3-2.4-1c-0.6-0.6-0.9-1.4-0.9-2.3V36.6c0-0.9,0.3-1.6,0.9-2.3s1.4-1,2.4-1c1,0,1.7,0.3,2.4,1c0.6,0.7,0.9,1.4,0.9,2.3
	V37h2.2v-0.4c0-1.7-0.5-3-1.6-4c-1-1-2.4-1.5-4-1.5c-1,0-2,0.2-2.8,0.7c-0.8,0.4-1.5,1.1-2,1.9c-0.5,0.8-0.7,1.8-0.7,2.9v11.3
	c0,1.1,0.2,2.1,0.7,2.9c0.5,0.8,1.2,1.4,2,1.9C5.1,53.1,6.1,53.3,7.1,53.3"/>
<path class="st0" d="M115.2,2.8h3.1c0.9,0,1.7,0.3,2.3,1c0.6,0.6,0.9,1.5,0.9,2.6c0,1.1-0.3,2-0.9,2.6c-0.6,0.6-1.3,1-2.1,1h-3.3
	V2.8z M123.8,6.4c0-1.1-0.2-2-0.7-2.9c-0.4-0.9-1.1-1.6-1.9-2.1c-0.8-0.5-1.8-0.8-2.9-0.8h-5.4v21.6h2.2l0-10.1h2.9l3,10.1h2.2
	l-3.1-10.5c1.1-0.4,1.9-1.1,2.5-2C123.5,8.8,123.8,7.7,123.8,6.4 M7.1,22.5c1.6,0,2.9-0.5,3.9-1.5c1-1,1.6-2.3,1.6-4v-0.4h-2.2v0.4
	c0,0.9-0.3,1.7-0.9,2.3c-0.6,0.6-1.4,0.9-2.4,0.9c-1,0-1.8-0.3-2.4-1c-0.6-0.6-0.9-1.4-0.9-2.3V5.8c0-0.9,0.3-1.6,0.9-2.3
	s1.4-1,2.4-1c1,0,1.7,0.3,2.4,1c0.6,0.7,0.9,1.4,0.9,2.3v0.4h2.2V5.8c0-1.7-0.5-3-1.6-4c-1-1-2.4-1.5-4-1.5c-1,0-2,0.2-2.8,0.7
	C3.4,1.5,2.8,2.2,2.3,3C1.8,3.8,1.6,4.7,1.6,5.8v11.3c0,1.1,0.2,2.1,0.7,2.9c0.5,0.8,1.2,1.4,2,1.9C5.1,22.3,6.1,22.5,7.1,22.5"/>
<rect x="0.2" y="25.8" class="st0" width="13.8" height="2.1"/>
<rect x="111.4" y="25.8" class="st0" width="13.8" height="2.1"/>
<rect x="0.2" y="56.6" class="st0" width="180.4" height="2.1"/>
<rect x="55.9" y="87.3" class="st0" width="27.9" height="2.1"/>
<rect x="0.2" y="118.1" class="st0" width="125.2" height="2.1"/>
<rect x="69.8" y="179.6" class="st0" width="55.6" height="2.1"/>
<rect x="97.7" y="87.3" class="st0" width="13.8" height="2.1"/>
<rect x="139.3" y="87.3" class="st0" width="14" height="2.1"/>
<rect x="166.8" y="87.3" class="st0" width="13.8" height="2.1"/>
</svg>
