<svg viewBox="0 0 186 187" fill="none" xmlns="http://www.w3.org/2000/svg">
<g clip-path="url(#clip0_103_2)">
<path d="M14.309 26.089H0.015564V28.2291H14.309V26.089Z" fill="#1C39BB"/>
<path d="M127.997 26.089H114.363V28.2291H127.997V26.089Z" fill="#1C39BB"/>
<path d="M185.17 57.7055H0.015564V59.8456H185.17V57.7055Z" fill="#1C39BB"/>
<path d="M128.656 120.942H0V123.082H128.656V120.942Z" fill="#1C39BB"/>
<path d="M85.7759 89.3252H57.1891V91.4653H85.7759V89.3252Z" fill="#1C39BB"/>
<path d="M114.363 89.3252H100.069V91.4653H114.363V89.3252Z" fill="#1C39BB"/>
<path d="M157.243 89.3252H142.95V91.4653H157.243V89.3252Z" fill="#1C39BB"/>
<path d="M185.5 89.3252H171.536V91.4653H185.5V89.3252Z" fill="#1C39BB"/>
<path d="M114.363 184.178H71.4825V186.318H114.363V184.178Z" fill="#1C39BB"/>
<path d="M7.985 178.318H12.7598V180.557H0.905182V178.318H5.68002V162.379C5.05478 163.368 3.5399 164.718 2.58493 165.443L1.30023 163.498C3.30971 161.918 4.49486 160.599 5.74534 158.36H7.985V178.318Z" fill="#1C39BB"/>
<path d="M27.2834 174.236C27.2834 177.627 24.9131 180.822 21.1586 180.822C17.3698 180.822 15.0337 177.758 15.0337 174.236C15.0337 171.602 16.4491 169.362 17.9328 168.572C16.7477 167.847 15.6621 166.002 15.6621 163.928C15.6621 161.293 17.4725 158.098 21.1617 158.098C24.8509 158.098 26.6613 161.293 26.6613 163.928C26.6613 166.002 25.5757 167.847 24.3874 168.572C25.8992 169.362 27.2834 171.567 27.2834 174.236ZM24.9784 174.168C24.9784 171.499 23.2334 169.788 21.1586 169.788C19.0838 169.788 17.3387 171.502 17.3387 174.168C17.3387 176.837 19.0838 178.647 21.1586 178.647C23.2334 178.647 24.9784 176.837 24.9784 174.168ZM17.9639 163.928C17.9639 165.838 19.314 167.617 21.1586 167.617C23.0032 167.617 24.3532 165.838 24.3532 163.928C24.3532 162.083 23.0032 160.304 21.1586 160.304C19.314 160.304 17.9639 162.083 17.9639 163.928Z" fill="#1C39BB"/>
<path d="M31.1375 178.713C31.1375 177.559 32.0925 176.672 33.1781 176.672C34.3321 176.672 35.2187 177.593 35.2187 178.713C35.2187 179.832 34.329 180.787 33.1781 180.787C32.0925 180.787 31.1375 179.867 31.1375 178.713Z" fill="#1C39BB"/>
<path d="M44.112 163.663C44.112 160.173 46.6161 158.098 49.7765 158.098C52.9369 158.098 55.441 160.173 55.441 163.663V175.288C55.441 178.778 52.9369 180.822 49.7765 180.822C46.6472 180.822 44.112 178.781 44.112 175.288V163.663ZM46.417 175.257C46.417 177.002 47.6364 178.582 49.7765 178.582C51.9166 178.582 53.136 176.968 53.136 175.257V163.698C53.136 161.984 51.9166 160.338 49.7765 160.338C47.6364 160.338 46.417 161.952 46.417 163.698V175.257Z" fill="#1C39BB"/>
<path d="M69.4046 160.602H60.8753V165.838C61.6311 165.212 62.7199 164.783 64.0699 164.783C67.0654 164.783 69.4046 166.858 69.4046 170.249V175.288C69.4046 178.778 66.9006 180.822 63.709 180.822C61.009 180.822 58.704 179.341 58.2437 176.638L60.4491 176.044C60.8784 177.689 62.0635 178.579 63.709 178.579C65.8492 178.579 67.0996 177.03 67.0996 175.484V170.345C67.0996 168.5 65.9798 166.92 64.1041 166.92C62.0293 166.92 61.2392 168.796 60.8441 170.345L58.5734 169.751V158.363H69.4077V160.602H69.4046Z" fill="#1C39BB"/>
<path d="M117.756 178.318H126.846V180.557H115.451V179.142C115.451 173.543 118.052 171.403 120.951 169.063C123.39 167.088 124.771 165.934 124.805 163.925C124.839 161.949 123.555 160.4 121.25 160.4C118.976 160.4 117.694 161.949 117.694 163.956H115.389C115.389 160.431 117.825 158.161 121.25 158.161C124.279 158.161 127.11 160.036 127.11 163.925C127.11 167.349 124.836 168.995 122.301 171.004C119.041 173.608 117.822 175.157 117.756 178.318Z" fill="#1C39BB"/>
<path d="M141.27 171.633V175.288C141.27 178.778 138.766 180.822 135.605 180.822C132.476 180.822 129.941 178.781 129.941 175.288V163.663C129.941 160.173 132.445 158.098 135.605 158.098C138.766 158.098 141.27 160.173 141.27 163.663H138.965C138.965 161.918 137.745 160.238 135.605 160.238C133.496 160.238 132.246 161.918 132.246 163.663V167.353C133.036 166.562 134.09 166.068 135.605 166.068C138.766 166.068 141.27 168.177 141.27 171.633ZM138.965 171.633C138.965 169.888 137.745 168.307 135.605 168.307C133.926 168.307 132.905 169.228 132.246 170.712V175.291C132.246 176.971 133.496 178.585 135.605 178.585C137.714 178.585 138.965 176.94 138.965 175.291V171.633Z" fill="#1C39BB"/>
<path d="M145.485 178.713C145.485 177.559 146.44 176.672 147.525 176.672C148.679 176.672 149.566 177.593 149.566 178.713C149.566 179.832 148.676 180.787 147.525 180.787C146.44 180.787 145.485 179.867 145.485 178.713Z" fill="#1C39BB"/>
<path d="M158.462 163.663C158.462 160.173 160.966 158.098 164.127 158.098C167.287 158.098 169.791 160.173 169.791 163.663V175.288C169.791 178.778 167.287 180.822 164.127 180.822C160.997 180.822 158.462 178.781 158.462 175.288V163.663ZM160.767 175.257C160.767 177.002 161.987 178.582 164.127 178.582C166.267 178.582 167.486 176.968 167.486 175.257V163.698C167.486 161.984 166.267 160.338 164.127 160.338C161.987 160.338 160.767 161.952 160.767 163.698V175.257Z" fill="#1C39BB"/>
<path d="M183.755 160.602H175.226V165.838C175.981 165.212 177.07 164.783 178.42 164.783C181.416 164.783 183.755 166.858 183.755 170.249V175.288C183.755 178.778 181.251 180.822 178.059 180.822C175.359 180.822 173.054 179.341 172.594 176.638L174.799 176.044C175.229 177.689 176.414 178.579 178.059 178.579C180.199 178.579 181.45 177.03 181.45 175.484V170.345C181.45 168.5 180.33 166.92 178.454 166.92C176.38 166.92 175.589 168.796 175.194 170.345L172.924 169.751V158.363H183.758V160.602H183.755Z" fill="#1C39BB"/>
<path d="M1.38425 17.1583V5.56494C1.38425 2.14012 3.8852 0 7.04872 0C10.2434 0 12.7132 2.0748 12.7132 5.56494V5.95999H10.4082V5.56494C10.4082 3.88519 9.12352 2.23966 7.04872 2.23966C4.97393 2.23966 3.68923 3.85408 3.68923 5.56494V17.1583C3.68923 18.9034 4.97393 20.4836 7.04872 20.4836C9.15774 20.4836 10.4082 18.9034 10.4082 17.1583V16.729H12.7132V17.1583C12.7132 20.6827 10.2091 22.7232 7.04872 22.7232C3.95364 22.7232 1.38425 20.6827 1.38425 17.1583Z" fill="#1C39BB"/>
<path d="M123.371 11.724L126.532 22.4588H124.227L121.097 12.0537H118.102L118.067 22.4619H115.763V0.264404H121.362C124.852 0.264404 126.927 2.8649 126.927 6.15907C126.927 8.75957 125.642 10.9339 123.371 11.724ZM118.102 2.50407V9.81407H121.527C123.007 9.81407 124.591 8.52938 124.591 6.15907C124.591 3.81987 123.01 2.50407 121.265 2.50407H118.102Z" fill="#1C39BB"/>
<path d="M1.38425 48.7749V37.1815C1.38425 33.7567 3.88831 31.6166 7.04872 31.6166C10.2434 31.6166 12.7132 33.6914 12.7132 37.1815V37.5766H10.4082V37.1815C10.4082 35.5018 9.12352 33.8562 7.04872 33.8562C4.97393 33.8562 3.68923 35.4706 3.68923 37.1815V48.7749C3.68923 50.5199 4.97393 52.1001 7.04872 52.1001C9.15774 52.1001 10.4082 50.5199 10.4082 48.7749V48.3456H12.7132V48.7749C12.7132 52.2992 10.2091 54.3398 7.04872 54.3398C3.95364 54.3398 1.38425 52.2992 1.38425 48.7749Z" fill="#1C39BB"/>
<path d="M15.4474 48.8091V37.1846C15.4474 33.7598 17.9515 31.6197 21.1119 31.6197C24.2412 31.6197 26.7764 33.6945 26.7764 37.1846V48.8091C26.7764 52.2992 24.2723 54.3429 21.1119 54.3429C18.0137 54.3398 15.4474 52.2992 15.4474 48.8091ZM24.4683 48.8091V37.1846C24.4683 35.5049 23.1836 33.8593 21.1088 33.8593C19.034 33.8593 17.7493 35.4738 17.7493 37.1846V48.8091C17.7493 50.523 19.034 52.1032 21.1088 52.1032C23.1867 52.1001 24.4683 50.4888 24.4683 48.8091Z" fill="#1C39BB"/>
<path d="M38.6964 31.881H40.9703V54.0785H38.4662L32.1112 37.7445V54.0785H29.8373V31.881H32.3725L38.6964 48.4794V31.881Z" fill="#1C39BB"/>
<path d="M48.5447 54.0785V34.1206H43.7698V31.881H55.6245V34.1206H50.8497V54.0785H48.5447Z" fill="#1C39BB"/>
<path d="M67.5134 43.4401H61.3885V51.8388H69.5882V54.0785H59.0835V31.881H69.5882V34.1206H61.3885V41.2004H67.5134V43.4401Z" fill="#1C39BB"/>
<path d="M81.7414 31.881H84.2455V54.0785H82.0058V38.2049L79.1409 48.4482H77.4612L74.5621 38.404V54.0785H72.3224V31.881H74.8576L78.2824 44.0654L81.7414 31.881Z" fill="#1C39BB"/>
<path d="M87.2753 54.0785V31.881H92.8744C96.3646 31.881 98.4394 34.4815 98.4394 37.7756C98.4394 41.0698 96.3646 43.6703 92.8744 43.6703H89.6145L89.5803 54.0785H87.2753ZM89.6145 41.4306H93.0393C94.52 41.4306 96.1002 40.1459 96.1002 37.7756C96.1002 35.4364 94.52 34.1206 92.7749 34.1206H89.6145V41.4306Z" fill="#1C39BB"/>
<path d="M101.205 48.8091V37.1846C101.205 33.7598 103.709 31.6197 106.869 31.6197C109.998 31.6197 112.534 33.6945 112.534 37.1846V48.8091C112.534 52.2992 110.03 54.3429 106.869 54.3429C103.774 54.3398 101.205 52.2992 101.205 48.8091ZM110.229 48.8091V37.1846C110.229 35.5049 108.944 33.8593 106.869 33.8593C104.794 33.8593 103.51 35.4738 103.51 37.1846V48.8091C103.51 50.523 104.794 52.1032 106.869 52.1032C108.947 52.1001 110.229 50.4888 110.229 48.8091Z" fill="#1C39BB"/>
<path d="M123.371 43.3406L126.532 54.0754H124.227L121.097 43.6672H118.102L118.067 54.0754H115.763V31.8779H121.362C124.852 31.8779 126.927 34.4783 126.927 37.7725C126.927 40.3792 125.642 42.5505 123.371 43.3406ZM118.102 34.1206V41.4306H121.527C123.007 41.4306 124.591 40.1459 124.591 37.7756C124.591 35.4364 123.01 34.1206 121.265 34.1206H118.102Z" fill="#1C39BB"/>
<path d="M139.344 54.0785L137.994 47.9537H132.89L131.54 54.0785H129.104L134.439 31.881H136.448L141.783 54.0785H139.344ZM133.35 45.8789H137.534L135.425 36.3945L133.35 45.8789Z" fill="#1C39BB"/>
<path d="M153.044 31.881H155.317V54.0785H152.813L146.458 37.7445V54.0785H144.184V31.881H146.72L153.044 48.4794V31.881Z" fill="#1C39BB"/>
<path d="M167.567 43.4401H161.442V51.8388H169.642V54.0785H159.137V31.881H169.642V34.1206H161.442V41.2004H167.567V43.4401Z" fill="#1C39BB"/>
<path d="M182.224 54.0785L180.874 47.9537H175.77L174.42 54.0785H171.984L177.319 31.881H179.328L184.663 54.0785H182.224ZM176.23 45.8789H180.414L178.305 36.3945L176.23 45.8789Z" fill="#1C39BB"/>
<path d="M67.5134 75.0567H61.3885V83.4554H69.5882V85.6951H59.0835V63.4975H69.5882V65.7372H61.3885V72.817H67.5134V75.0567Z" fill="#1C39BB"/>
<path d="M81.7414 63.4975H84.2455V85.6951H82.0058V69.8215L79.1409 80.0648H77.4612L74.5621 70.0205V85.6951H72.3224V63.4975H74.8576L78.2824 75.6819L81.7414 63.4975Z" fill="#1C39BB"/>
<path d="M101.205 80.4256V68.8012C101.205 65.3764 103.709 63.2362 106.869 63.2362C109.998 63.2362 112.534 65.311 112.534 68.8012V80.4256C112.534 83.9158 110.03 85.9595 106.869 85.9595C103.774 85.9595 101.205 83.9158 101.205 80.4256ZM110.229 80.4256V68.8012C110.229 67.1214 108.944 65.4759 106.869 65.4759C104.794 65.4759 103.51 67.0903 103.51 68.8012V80.4256C103.51 82.1396 104.794 83.7198 106.869 83.7198C108.944 83.7198 110.229 82.1054 110.229 80.4256Z" fill="#1C39BB"/>
<path d="M153.044 63.4975H155.317V85.6951H152.813L146.458 69.3611V85.6951H144.184V63.4975H146.72L153.044 80.0959V63.4975Z" fill="#1C39BB"/>
<path d="M182.224 85.6951L180.874 79.5702H175.77L174.42 85.6951H171.984L177.319 63.4975H179.328L184.663 85.6951H182.224ZM176.23 77.4954H180.414L178.305 68.0111L176.23 77.4954Z" fill="#1C39BB"/>
<path d="M10.7037 117.312L9.35371 111.187H4.24915L2.89913 117.312H0.460388L5.79514 95.1141H7.80461L13.1394 117.312H10.7037ZM4.70952 109.112H8.89334L6.78432 99.6276L4.70952 109.112Z" fill="#1C39BB"/>
<path d="M23.3174 106.577L26.4778 117.312H24.1728L21.0435 106.903H18.0479L18.0137 117.312H15.7087V95.1141H21.3079C24.798 95.1141 26.8728 97.7146 26.8728 101.009C26.8728 103.612 25.5881 105.787 23.3174 106.577ZM18.0479 97.3569V104.667H21.4728C22.9534 104.667 24.5367 103.382 24.5367 101.012C24.5367 98.6727 22.9565 97.3569 21.2115 97.3569H18.0479Z" fill="#1C39BB"/>
<path d="M34.2513 117.312V97.3537H29.4764V95.1141H41.3311V97.3537H36.5563V117.312H34.2513Z" fill="#1C39BB"/>
<path d="M63.0683 101.407H64.9129L67.0872 111.156L68.4372 95.1172H70.6116L68.4714 117.315H66.2971L63.9921 106.281L61.6529 117.315H59.4786L57.3696 95.1172H59.5097L60.8597 111.09L63.0683 101.407Z" fill="#1C39BB"/>
<path d="M81.8068 106.676H75.6819V115.075H83.8816V117.315H73.377V95.1172H83.8816V97.3569H75.6819V104.437H81.8068V106.676Z" fill="#1C39BB"/>
<path d="M96.1002 106.676H89.9753V115.075H98.175V117.315H87.6703V95.1172H98.175V97.3569H89.9753V104.437H96.1002V106.676Z" fill="#1C39BB"/>
<path d="M113.128 95.1172L107.728 104.107L112.932 117.312H110.496L106.281 106.543L104.172 110.002V117.312H101.867V95.1141H104.172V105.883L110.661 95.1141H113.128V95.1172Z" fill="#1C39BB"/>
<path d="M132.031 115.072H141.12V117.312H129.726V115.896C129.726 110.297 132.327 108.157 135.226 105.818C137.665 103.843 139.046 102.689 139.08 100.679C139.114 98.7038 137.829 97.1547 135.524 97.1547C133.251 97.1547 131.969 98.7038 131.969 100.71H129.664C129.664 97.1858 132.1 94.915 135.524 94.915C138.554 94.915 141.385 96.7907 141.385 100.679C141.385 104.104 139.111 105.749 136.576 107.759C133.316 110.362 132.096 111.912 132.031 115.072Z" fill="#1C39BB"/>
<path d="M144.15 100.418C144.15 96.9276 146.654 94.8528 149.815 94.8528C152.975 94.8528 155.479 96.9276 155.479 100.418V112.042C155.479 115.532 152.975 117.576 149.815 117.576C146.685 117.576 144.15 115.535 144.15 112.042V100.418ZM146.458 112.011C146.458 113.756 147.678 115.336 149.818 115.336C151.958 115.336 153.177 113.722 153.177 112.011V100.452C153.177 98.738 151.958 97.0924 149.818 97.0924C147.678 97.0924 146.458 98.7069 146.458 100.452V112.011Z" fill="#1C39BB"/>
<path d="M160.618 115.072H169.707V117.312H158.313V115.896C158.313 110.297 160.913 108.157 163.813 105.818C166.251 103.843 167.632 102.689 167.667 100.679C167.701 98.7038 166.416 97.1547 164.111 97.1547C161.837 97.1547 160.556 98.7038 160.556 100.71H158.251C158.251 97.1858 160.686 94.915 164.111 94.915C167.141 94.915 169.972 96.7907 169.972 100.679C169.972 104.104 167.698 105.749 165.163 107.759C161.903 110.362 160.683 111.912 160.618 115.072Z" fill="#1C39BB"/>
<path d="M184.365 109.212V111.451H182.06V117.312H179.755V111.451H172.05V109.936C174.454 105.127 176.56 99.8578 177.285 95.1172H179.655C178.93 99.7272 177.151 104.602 175.011 109.212H179.752V103.678H182.057V109.212H184.365Z" fill="#1C39BB"/>
</g>
<defs>
<clipPath id="clip0_103_2">
<rect width="186" height="187" fill="white"/>
</clipPath>
</defs>
</svg>
