<svg width="215" height="216" viewBox="0 0 215 216" fill="none" xmlns="http://www.w3.org/2000/svg">
<path d="M19.1216 33.265H3.01744V35.6647H19.1216V33.265Z" fill="#1C39BB"/>
<path d="M147.212 33.265H131.851V35.6647H147.212V33.265Z" fill="#1C39BB"/>
<path d="M211.628 68.7306H3.01744V71.1303H211.628V68.7306Z" fill="#1C39BB"/>
<path d="M147.955 139.665H3V142.065H147.955V139.665Z" fill="#1C39BB"/>
<path d="M99.6424 104.2H67.4341V106.599H99.6424V104.2Z" fill="#1C39BB"/>
<path d="M131.851 104.2H115.747V106.599H131.851V104.2Z" fill="#1C39BB"/>
<path d="M180.163 104.2H164.059V106.599H180.163V104.2Z" fill="#1C39BB"/>
<path d="M212 104.2H196.267V106.599H212V104.2Z" fill="#1C39BB"/>
<path d="M131.851 210.6H83.5383V213H131.851V210.6Z" fill="#1C39BB"/>
<path d="M11.9966 204.026H17.3763V206.538H4.01987V204.026H9.3996V186.147C8.69516 187.256 6.98836 188.771 5.91242 189.584L4.46497 187.403C6.72901 185.63 8.06431 184.151 9.4732 181.638H11.9966V204.026Z" fill="#1C39BB"/>
<path d="M33.7398 199.448C33.7398 203.251 31.0692 206.835 26.8391 206.835C22.5703 206.835 19.9383 203.398 19.9383 199.448C19.9383 196.493 21.5329 193.98 23.2047 193.094C21.8694 192.281 20.6462 190.212 20.6462 187.884C20.6462 184.929 22.686 181.345 26.8426 181.345C30.9991 181.345 33.0389 184.929 33.0389 187.884C33.0389 190.212 31.8157 192.281 30.4769 193.094C32.1802 193.98 33.7398 196.454 33.7398 199.448ZM31.1428 199.371C31.1428 196.377 29.1767 194.458 26.8391 194.458C24.5014 194.458 22.5353 196.381 22.5353 199.371C22.5353 202.365 24.5014 204.396 26.8391 204.396C29.1767 204.396 31.1428 202.365 31.1428 199.371ZM23.2397 187.884C23.2397 190.027 24.7608 192.023 26.8391 192.023C28.9173 192.023 30.4384 190.027 30.4384 187.884C30.4384 185.815 28.9173 183.819 26.8391 183.819C24.7608 183.819 23.2397 185.815 23.2397 187.884Z" fill="#1C39BB"/>
<path d="M38.0822 204.469C38.0822 203.175 39.1581 202.18 40.3813 202.18C41.6815 202.18 42.6803 203.213 42.6803 204.469C42.6803 205.725 41.678 206.796 40.3813 206.796C39.1581 206.796 38.0822 205.763 38.0822 204.469Z" fill="#1C39BB"/>
<path d="M52.7003 187.588C52.7003 183.673 55.5216 181.345 59.0824 181.345C62.6432 181.345 65.4645 183.673 65.4645 187.588V200.627C65.4645 204.542 62.6432 206.835 59.0824 206.835C55.5567 206.835 52.7003 204.546 52.7003 200.627V187.588ZM55.2973 200.593C55.2973 202.55 56.6712 204.323 59.0824 204.323C61.4936 204.323 62.8675 202.512 62.8675 200.593V187.626C62.8675 185.704 61.4936 183.858 59.0824 183.858C56.6712 183.858 55.2973 185.669 55.2973 187.626V200.593Z" fill="#1C39BB"/>
<path d="M81.1971 184.154H71.5872V190.027C72.4389 189.325 73.6655 188.844 75.1866 188.844C78.5616 188.844 81.1971 191.171 81.1971 194.975V200.627C81.1971 204.542 78.3759 206.835 74.78 206.835C71.7379 206.835 69.1409 205.174 68.6222 202.142L71.1071 201.475C71.5907 203.321 72.926 204.319 74.78 204.319C77.1913 204.319 78.6002 202.581 78.6002 200.847V195.083C78.6002 193.014 77.3385 191.241 75.2251 191.241C72.8875 191.241 71.9973 193.345 71.5522 195.083L68.9937 194.416V181.642H81.2007V184.154H81.1971Z" fill="#1C39BB"/>
<path d="M135.674 204.026H145.915V206.538H133.077V204.951C133.077 198.67 136.007 196.269 139.274 193.645C142.021 191.43 143.577 190.135 143.616 187.881C143.655 185.665 142.207 183.927 139.61 183.927C137.048 183.927 135.604 185.665 135.604 187.916H133.007C133.007 183.962 135.751 181.415 139.61 181.415C143.024 181.415 146.213 183.519 146.213 187.881C146.213 191.723 143.651 193.568 140.795 195.823C137.122 198.743 135.748 200.481 135.674 204.026Z" fill="#1C39BB"/>
<path d="M162.167 196.527V200.627C162.167 204.542 159.345 206.835 155.784 206.835C152.259 206.835 149.402 204.546 149.402 200.627V187.588C149.402 183.673 152.224 181.345 155.784 181.345C159.345 181.345 162.167 183.673 162.167 187.588H159.57C159.57 185.63 158.196 183.746 155.784 183.746C153.408 183.746 151.999 185.63 151.999 187.588V191.726C152.89 190.84 154.078 190.285 155.784 190.285C159.345 190.285 162.167 192.651 162.167 196.527ZM159.57 196.527C159.57 194.57 158.196 192.797 155.784 192.797C153.892 192.797 152.742 193.83 151.999 195.495V200.631C151.999 202.515 153.408 204.326 155.784 204.326C158.161 204.326 159.57 202.48 159.57 200.631V196.527Z" fill="#1C39BB"/>
<path d="M166.915 204.469C166.915 203.175 167.991 202.18 169.214 202.18C170.515 202.18 171.514 203.213 171.514 204.469C171.514 205.725 170.511 206.796 169.214 206.796C167.991 206.796 166.915 205.763 166.915 204.469Z" fill="#1C39BB"/>
<path d="M181.537 187.588C181.537 183.673 184.358 181.345 187.919 181.345C191.48 181.345 194.301 183.673 194.301 187.588V200.627C194.301 204.542 191.48 206.835 187.919 206.835C184.393 206.835 181.537 204.546 181.537 200.627V187.588ZM184.134 200.593C184.134 202.55 185.508 204.323 187.919 204.323C190.33 204.323 191.704 202.512 191.704 200.593V187.626C191.704 185.704 190.33 183.858 187.919 183.858C185.508 183.858 184.134 185.669 184.134 187.626V200.593Z" fill="#1C39BB"/>
<path d="M210.034 184.154H200.424V190.027C201.276 189.325 202.502 188.844 204.023 188.844C207.398 188.844 210.034 191.171 210.034 194.975V200.627C210.034 204.542 207.213 206.835 203.617 206.835C200.575 206.835 197.978 205.174 197.459 202.142L199.944 201.475C200.427 203.321 201.763 204.319 203.617 204.319C206.028 204.319 207.437 202.581 207.437 200.847V195.083C207.437 193.014 206.175 191.241 204.062 191.241C201.724 191.241 200.834 193.345 200.389 195.083L197.83 194.416V181.642H210.037V184.154H210.034Z" fill="#1C39BB"/>
<path d="M4.5596 23.2472V10.2424C4.5596 6.40066 7.37739 4 10.9417 4C14.541 4 17.3238 6.32738 17.3238 10.2424V10.6856H14.7268V10.2424C14.7268 8.35818 13.2793 6.51232 10.9417 6.51232C8.60404 6.51232 7.15659 8.32328 7.15659 10.2424V23.2472C7.15659 25.2047 8.60404 26.9773 10.9417 26.9773C13.3179 26.9773 14.7268 25.2047 14.7268 23.2472V22.7656H17.3238V23.2472C17.3238 27.2006 14.5025 29.4896 10.9417 29.4896C7.45449 29.4896 4.5596 27.2006 4.5596 23.2472Z" fill="#1C39BB"/>
<path d="M142 17.1512L145.561 29.1929H142.964L139.438 17.5211H136.063L136.025 29.1964H133.428V4.29648H139.736C143.669 4.29648 146.006 7.21356 146.006 10.9088C146.006 13.8258 144.559 16.2649 142 17.1512ZM136.063 6.8088V15.0087H139.922C141.59 15.0087 143.374 13.5676 143.374 10.9088C143.374 8.28478 141.594 6.8088 139.628 6.8088H136.063Z" fill="#1C39BB"/>
<path d="M4.5596 58.7127V45.708C4.5596 41.8662 7.38089 39.4656 10.9417 39.4656C14.541 39.4656 17.3238 41.793 17.3238 45.708V46.1511H14.7268V45.708C14.7268 43.8238 13.2793 41.9779 10.9417 41.9779C8.60404 41.9779 7.15659 43.7889 7.15659 45.708V58.7127C7.15659 60.6703 8.60404 62.4428 10.9417 62.4428C13.3179 62.4428 14.7268 60.6703 14.7268 58.7127V58.2312H17.3238V58.7127C17.3238 62.6661 14.5025 64.9552 10.9417 64.9552C7.45449 64.9552 4.5596 62.6661 4.5596 58.7127Z" fill="#1C39BB"/>
<path d="M20.4044 58.7511V45.7115C20.4044 41.8697 23.2257 39.4691 26.7865 39.4691C30.3122 39.4691 33.1686 41.7965 33.1686 45.7115V58.7511C33.1686 62.6662 30.3473 64.9586 26.7865 64.9586C23.2958 64.9552 20.4044 62.6662 20.4044 58.7511ZM30.5681 58.7511V45.7115C30.5681 43.8273 29.1206 41.9814 26.783 41.9814C24.4453 41.9814 22.9979 43.7924 22.9979 45.7115V58.7511C22.9979 60.6737 24.4453 62.4463 26.783 62.4463C29.1241 62.4428 30.5681 60.6354 30.5681 58.7511Z" fill="#1C39BB"/>
<path d="M46.5986 39.7621H49.1606V64.662H46.3393L39.1791 46.3395V64.662H36.6172V39.7621H39.4735L46.5986 58.3812V39.7621Z" fill="#1C39BB"/>
<path d="M57.6945 64.662V42.2744H52.3148V39.7621H65.6713V42.2744H60.2915V64.662H57.6945Z" fill="#1C39BB"/>
<path d="M79.0662 52.7284H72.1655V62.1496H81.4039V64.662H69.5685V39.7621H81.4039V42.2744H72.1655V50.2161H79.0662V52.7284Z" fill="#1C39BB"/>
<path d="M95.0968 39.7621H97.9181V64.662H95.3947V46.8559L92.1669 58.3463H90.2744L87.008 47.0792V64.662H84.4846V39.7621H87.3409L91.1996 53.4298L95.0968 39.7621Z" fill="#1C39BB"/>
<path d="M101.332 64.662V39.7621H107.64C111.572 39.7621 113.91 42.6792 113.91 46.3744C113.91 50.0696 111.572 52.9866 107.64 52.9866H103.967L103.929 64.662H101.332ZM103.967 50.4743H107.826C109.494 50.4743 111.275 49.0332 111.275 46.3744C111.275 43.7504 109.494 42.2744 107.528 42.2744H103.967V50.4743Z" fill="#1C39BB"/>
<path d="M117.026 58.7511V45.7115C117.026 41.8697 119.847 39.4691 123.408 39.4691C126.934 39.4691 129.79 41.7965 129.79 45.7115V58.7511C129.79 62.6662 126.969 64.9586 123.408 64.9586C119.921 64.9552 117.026 62.6662 117.026 58.7511ZM127.193 58.7511V45.7115C127.193 43.8273 125.746 41.9814 123.408 41.9814C121.07 41.9814 119.623 43.7924 119.623 45.7115V58.7511C119.623 60.6737 121.07 62.4463 123.408 62.4463C125.749 62.4428 127.193 60.6354 127.193 58.7511Z" fill="#1C39BB"/>
<path d="M142 52.6168L145.561 64.6585H142.964L139.438 52.9832H136.063L136.025 64.6585H133.428V39.7586H139.736C143.669 39.7586 146.006 42.6757 146.006 46.3709C146.006 49.2949 144.559 51.7305 142 52.6168ZM136.063 42.2744V50.4743H139.922C141.59 50.4743 143.374 49.0332 143.374 46.3743C143.374 43.7504 141.594 42.2744 139.628 42.2744H136.063Z" fill="#1C39BB"/>
<path d="M159.997 64.662L158.476 57.7915H152.725L151.204 64.662H148.46L154.47 39.7621H156.734L162.745 64.662H159.997ZM153.244 55.4641H157.957L155.581 44.8251L153.244 55.4641Z" fill="#1C39BB"/>
<path d="M175.432 39.7621H177.994V64.662H175.173L168.012 46.3395V64.662H165.45V39.7621H168.307L175.432 58.3812V39.7621Z" fill="#1C39BB"/>
<path d="M191.795 52.7284H184.895V62.1496H194.133V64.662H182.298V39.7621H194.133V42.2744H184.895V50.2161H191.795V52.7284Z" fill="#1C39BB"/>
<path d="M208.31 64.662L206.789 57.7915H201.037L199.516 64.662H196.772L202.783 39.7621H205.047L211.057 64.662H208.31ZM201.556 55.4641H206.27L203.894 44.8251L201.556 55.4641Z" fill="#1C39BB"/>
<path d="M79.0663 88.1941H72.1655V97.6153H81.4039V100.128H69.5685V75.2277H81.4039V77.7401H72.1655V85.6818H79.0663V88.1941Z" fill="#1C39BB"/>
<path d="M95.0968 75.2277H97.9181V100.128H95.3947V82.3216L92.1669 93.8119H90.2743L87.0079 82.5449V100.128H84.4846V75.2277H87.3409L91.1996 88.8955L95.0968 75.2277Z" fill="#1C39BB"/>
<path d="M117.026 94.2167V81.1771C117.026 77.3353 119.847 74.9346 123.408 74.9346C126.934 74.9346 129.79 77.262 129.79 81.1771V94.2167C129.79 98.1317 126.969 100.424 123.408 100.424C119.921 100.424 117.026 98.1317 117.026 94.2167ZM127.193 94.2167V81.1771C127.193 79.2928 125.746 77.447 123.408 77.447C121.07 77.447 119.623 79.2579 119.623 81.1771V94.2167C119.623 96.1393 121.07 97.9119 123.408 97.9119C125.746 97.9119 127.193 96.1009 127.193 94.2167Z" fill="#1C39BB"/>
<path d="M175.432 75.2277H177.994V100.128H175.173L168.012 81.8051V100.128H165.45V75.2277H168.307L175.432 93.8468V75.2277Z" fill="#1C39BB"/>
<path d="M208.31 100.128L206.788 93.2571H201.037L199.516 100.128H196.772L202.783 75.2277H205.047L211.057 100.128H208.31ZM201.556 90.9297H206.27L203.894 80.2908L201.556 90.9297Z" fill="#1C39BB"/>
<path d="M15.0597 135.593L13.5387 128.723H7.78744L6.26639 135.593H3.5187L9.52928 110.693H11.7933L17.8039 135.593H15.0597ZM8.30613 126.395H13.02L10.6438 115.756L8.30613 126.395Z" fill="#1C39BB"/>
<path d="M29.2713 123.552L32.8321 135.593H30.2351L26.7094 123.918H23.3343L23.2958 135.593H20.6988V110.693H27.0073C30.9396 110.693 33.2772 113.61 33.2772 117.306C33.2772 120.226 31.8298 122.665 29.2713 123.552ZM23.3343 113.209V121.409H27.193C28.8613 121.409 30.6452 119.968 30.6452 117.309C30.6452 114.685 28.8648 113.209 26.8986 113.209H23.3343Z" fill="#1C39BB"/>
<path d="M41.5904 135.593V113.206H36.2106V110.693H49.5671V113.206H44.1874V135.593H41.5904Z" fill="#1C39BB"/>
<path d="M74.058 117.752H76.1363L78.5861 128.688L80.1072 110.697H82.557L80.1457 135.597H77.6959L75.0989 123.22L72.4634 135.597H70.0136L67.6374 110.697H70.0486L71.5697 128.615L74.058 117.752Z" fill="#1C39BB"/>
<path d="M95.1704 123.663H88.2696V133.084H97.5081V135.597H85.6727V110.697H97.5081V113.209H88.2696V121.151H95.1704V123.663Z" fill="#1C39BB"/>
<path d="M111.275 123.663H104.374V133.084H113.612V135.597H101.777V110.697H113.612V113.209H104.374V121.151H111.275V123.663Z" fill="#1C39BB"/>
<path d="M130.459 110.697L124.375 120.781L130.239 135.593H127.494L122.745 123.513L120.369 127.393V135.593H117.772V110.693H120.369V122.773L127.68 110.693H130.459V110.697Z" fill="#1C39BB"/>
<path d="M151.758 133.081H161.998V135.593H149.161V134.006C149.161 127.725 152.091 125.324 155.357 122.7C158.105 120.484 159.661 119.19 159.699 116.936C159.738 114.72 158.29 112.982 155.693 112.982C153.131 112.982 151.688 114.72 151.688 116.971H149.091C149.091 113.017 151.835 110.47 155.693 110.47C159.107 110.47 162.296 112.574 162.296 116.936C162.296 120.778 159.734 122.623 156.878 124.877C153.205 127.798 151.831 129.536 151.758 133.081Z" fill="#1C39BB"/>
<path d="M165.412 116.643C165.412 112.728 168.233 110.4 171.794 110.4C175.355 110.4 178.176 112.728 178.176 116.643V129.682C178.176 133.597 175.355 135.89 171.794 135.89C168.268 135.89 165.412 133.601 165.412 129.682V116.643ZM168.012 129.647C168.012 131.605 169.386 133.378 171.797 133.378C174.209 133.378 175.583 131.567 175.583 129.647V116.681C175.583 114.758 174.209 112.913 171.797 112.913C169.386 112.913 168.012 114.724 168.012 116.681V129.647Z" fill="#1C39BB"/>
<path d="M183.966 133.081H194.207V135.593H181.369V134.006C181.369 127.725 184.299 125.324 187.565 122.7C190.313 120.484 191.869 119.19 191.907 116.936C191.946 114.72 190.499 112.982 187.902 112.982C185.34 112.982 183.896 114.72 183.896 116.971H181.299C181.299 113.017 184.043 110.47 187.902 110.47C191.315 110.47 194.504 112.574 194.504 116.936C194.504 120.778 191.943 122.623 189.086 124.877C185.413 127.798 184.039 129.536 183.966 133.081Z" fill="#1C39BB"/>
<path d="M210.721 126.507V129.019H208.124V135.593H205.527V129.019H196.846V127.32C199.555 121.925 201.927 116.014 202.744 110.697H205.415C204.598 115.868 202.593 121.336 200.182 126.507H205.523V120.299H208.12V126.507H210.721Z" fill="#1C39BB"/>
</svg>
