<svg id="Livello_1" data-name="Livello 1" xmlns="http://www.w3.org/2000/svg" viewBox="0 0 101.19 67.04"><defs><style>.cls-1{fill:none;stroke:red;stroke-miterlimit:10;stroke-width:1.17px;}.cls-2{fill:red;}</style></defs><title>CRC 2023 RGB</title><line class="cls-1" y1="14.62" x2="7.81" y2="14.62"/><line class="cls-1" x1="62.49" y1="14.62" x2="69.95" y2="14.62"/><line class="cls-1" y1="31.9" x2="101.19" y2="31.9"/><line class="cls-1" x1="31.25" y1="49.18" x2="46.87" y2="49.18"/><line class="cls-1" x1="54.68" y1="49.18" x2="62.49" y2="49.18"/><line class="cls-1" x1="78.12" y1="49.18" x2="85.93" y2="49.18"/><line class="cls-1" x1="93.74" y1="49.18" x2="101.19" y2="49.18"/><line class="cls-1" y1="66.46" x2="70.31" y2="66.46"/><path class="cls-2" d="M4.49,13.52a2.69,2.69,0,0,1-1.11-1.06A3.05,3.05,0,0,1,3,10.84V4.5a3.07,3.07,0,0,1,.41-1.6A2.76,2.76,0,0,1,4.48,1.84a3.24,3.24,0,0,1,1.58-.38,3.09,3.09,0,0,1,2.22.82A2.89,2.89,0,0,1,9.16,4.5v.22H7.9V4.5a1.83,1.83,0,0,0-.52-1.27,1.71,1.71,0,0,0-1.32-.55,1.73,1.73,0,0,0-1.32.54A1.77,1.77,0,0,0,4.22,4.5v6.34a1.78,1.78,0,0,0,.51,1.27,1.73,1.73,0,0,0,1.33.54,1.72,1.72,0,0,0,1.33-.53,1.77,1.77,0,0,0,.51-1.28V10.6H9.16v.24a2.89,2.89,0,0,1-.89,2.22,3.13,3.13,0,0,1-2.21.82A3.39,3.39,0,0,1,4.49,13.52Z" transform="translate(-2.21 -1.46)"/><path class="cls-2" d="M71.07,6.72a2.71,2.71,0,0,1-1.43,1.15l1.72,5.86H70.1L68.39,8.05H66.76l0,5.68H65.48V1.6h3.06A3.05,3.05,0,0,1,70.16,2a2.83,2.83,0,0,1,1,1.17,3.52,3.52,0,0,1,.37,1.63A3.51,3.51,0,0,1,71.07,6.72Zm-4.31.1h1.87a1.57,1.57,0,0,0,1.17-.54,2.07,2.07,0,0,0,.5-1.46,2,2,0,0,0-.53-1.45,1.73,1.73,0,0,0-1.29-.54H66.76Z" transform="translate(-2.21 -1.46)"/><path class="cls-2" d="M4.49,30.8a2.69,2.69,0,0,1-1.11-1.06A3.05,3.05,0,0,1,3,28.12V21.78a3.07,3.07,0,0,1,.41-1.6,2.76,2.76,0,0,1,1.11-1.06,3.24,3.24,0,0,1,1.58-.38,3.09,3.09,0,0,1,2.22.82,2.89,2.89,0,0,1,.88,2.22V22H7.9v-.22a1.83,1.83,0,0,0-.52-1.27A1.74,1.74,0,0,0,6.06,20a1.73,1.73,0,0,0-1.32.54,1.77,1.77,0,0,0-.52,1.28v6.34a1.78,1.78,0,0,0,.51,1.27,1.73,1.73,0,0,0,1.33.54,1.72,1.72,0,0,0,1.33-.53,1.77,1.77,0,0,0,.51-1.28v-.24H9.16v.24a2.89,2.89,0,0,1-.89,2.22,3.13,3.13,0,0,1-2.21.82A3.39,3.39,0,0,1,4.49,30.8Z" transform="translate(-2.21 -1.46)"/><path class="cls-2" d="M12.18,30.8a2.72,2.72,0,0,1-1.12-1.06,3.11,3.11,0,0,1-.41-1.61V21.78a3.07,3.07,0,0,1,.4-1.6,2.79,2.79,0,0,1,1.12-1.06,3.21,3.21,0,0,1,1.58-.38,3.27,3.27,0,0,1,1.56.37,2.76,2.76,0,0,1,1.12,1.05,3.14,3.14,0,0,1,.41,1.62v6.35A2.86,2.86,0,0,1,16,30.34a3.16,3.16,0,0,1-2.21.82A3.39,3.39,0,0,1,12.18,30.8Zm2.89-1.41a1.78,1.78,0,0,0,.51-1.26V21.78a1.82,1.82,0,0,0-.51-1.27,1.88,1.88,0,0,0-2.65,0,1.81,1.81,0,0,0-.51,1.28v6.35a1.78,1.78,0,0,0,.5,1.27,1.74,1.74,0,0,0,1.34.53A1.73,1.73,0,0,0,15.07,29.39Z" transform="translate(-2.21 -1.46)"/><path class="cls-2" d="M24.6,18.88V31H23.23l-3.47-8.92V31H18.52V18.88H19.9L23.36,28V18.88Z" transform="translate(-2.21 -1.46)"/><path class="cls-2" d="M28.74,20.11H26.13V18.88h6.48v1.23H30V31H28.74Z" transform="translate(-2.21 -1.46)"/><path class="cls-2" d="M34.5,18.88h5.74v1.23H35.76V24h3.35V25.2H35.76v4.59h4.48V31H34.5Z" transform="translate(-2.21 -1.46)"/><path class="cls-2" d="M48.25,18.88V31H47V22.34l-1.57,5.6h-.92L43,22.45V31H41.73V18.88h1.39L45,25.54l1.89-6.66Z" transform="translate(-2.21 -1.46)"/><path class="cls-2" d="M49.91,18.88H53a3.05,3.05,0,0,1,1.62.42,2.9,2.9,0,0,1,1,1.17A3.65,3.65,0,0,1,56,22.1a3.69,3.69,0,0,1-.37,1.64,2.88,2.88,0,0,1-1,1.16,3.06,3.06,0,0,1-1.62.43H51.18V31H49.91Zm3.15,5.22a1.57,1.57,0,0,0,1.17-.54,2.07,2.07,0,0,0,.5-1.46,2,2,0,0,0-.53-1.45,1.74,1.74,0,0,0-1.29-.54H51.18v4Z" transform="translate(-2.21 -1.46)"/><path class="cls-2" d="M59.05,30.8a2.72,2.72,0,0,1-1.12-1.06,3.11,3.11,0,0,1-.41-1.61V21.78a3.07,3.07,0,0,1,.41-1.6A2.7,2.7,0,0,1,59,19.12a3.47,3.47,0,0,1,3.14,0,2.76,2.76,0,0,1,1.12,1.05,3.14,3.14,0,0,1,.41,1.62v6.35a2.86,2.86,0,0,1-.88,2.21,3.16,3.16,0,0,1-2.21.82A3.39,3.39,0,0,1,59.05,30.8Zm2.89-1.41a1.78,1.78,0,0,0,.51-1.26V21.78a1.82,1.82,0,0,0-.51-1.27,1.88,1.88,0,0,0-2.65,0,1.81,1.81,0,0,0-.51,1.28v6.35a1.78,1.78,0,0,0,.5,1.27,1.92,1.92,0,0,0,2.66,0Z" transform="translate(-2.21 -1.46)"/><path class="cls-2" d="M71.06,24a2.68,2.68,0,0,1-1.43,1.15L71.36,31H70.1l-1.71-5.68H66.75V31H65.48V18.88h3.06a3.05,3.05,0,0,1,1.62.42,2.9,2.9,0,0,1,1,1.17,3.65,3.65,0,0,1,.37,1.63A3.43,3.43,0,0,1,71.06,24Zm-4.31.1h1.88a1.57,1.57,0,0,0,1.17-.54,2.07,2.07,0,0,0,.5-1.46,2,2,0,0,0-.53-1.45,1.74,1.74,0,0,0-1.29-.54H66.75Z" transform="translate(-2.21 -1.46)"/><path class="cls-2" d="M77.63,27.67H74.85L74.13,31H72.78l2.9-12.12h1.1L79.7,31H78.36Zm-.26-1.14-1.15-5.16-1.11,5.16Z" transform="translate(-2.21 -1.46)"/><path class="cls-2" d="M87.09,18.88V31H85.73l-3.48-8.92V31H81V18.88h1.38L85.85,28V18.88Z" transform="translate(-2.21 -1.46)"/><path class="cls-2" d="M89.18,18.88h5.74v1.23H90.44V24h3.35V25.2H90.44v4.59h4.48V31H89.18Z" transform="translate(-2.21 -1.46)"/><path class="cls-2" d="M101.06,27.67H98.29L97.57,31H96.22l2.9-12.12h1.09L103.13,31H101.8Zm-.25-1.14-1.15-5.16-1.12,5.16Z" transform="translate(-2.21 -1.46)"/><path class="cls-2" d="M34.5,36.16h5.74v1.23H35.76v3.87h3.35v1.22H35.76v4.59h4.48v1.22H34.5Z" transform="translate(-2.21 -1.46)"/><path class="cls-2" d="M48.25,36.16V48.29H47V39.62l-1.57,5.6h-.92L43,39.73v8.56H41.74V36.16h1.38L45,42.82l1.89-6.66Z" transform="translate(-2.21 -1.46)"/><path class="cls-2" d="M59.05,48.08A2.64,2.64,0,0,1,57.94,47a3,3,0,0,1-.42-1.61V39.06a3.07,3.07,0,0,1,.41-1.6A2.76,2.76,0,0,1,59,36.4a3.47,3.47,0,0,1,3.14,0,2.76,2.76,0,0,1,1.12,1,3,3,0,0,1,.41,1.62v6.35a2.86,2.86,0,0,1-.88,2.21,3.15,3.15,0,0,1-2.21.82A3.39,3.39,0,0,1,59.05,48.08Zm2.89-1.41a1.78,1.78,0,0,0,.51-1.26V39.06a1.82,1.82,0,0,0-.51-1.27,1.74,1.74,0,0,0-1.32-.55,1.77,1.77,0,0,0-1.33.54,1.81,1.81,0,0,0-.51,1.28v6.35a1.75,1.75,0,0,0,.51,1.27,1.91,1.91,0,0,0,2.65,0Z" transform="translate(-2.21 -1.46)"/><path class="cls-2" d="M87.1,36.16V48.29H85.73l-3.48-8.92v8.92H81V36.16H82.4l3.45,9.07V36.16Z" transform="translate(-2.21 -1.46)"/><path class="cls-2" d="M101.06,45H98.29l-.72,3.34H96.22l2.9-12.12h1.1l2.91,12.13H101.8Zm-.25-1.14-1.15-5.16-1.12,5.16Z" transform="translate(-2.21 -1.46)"/><path class="cls-2" d="M7.32,62.23H4.55l-.72,3.34H2.48l2.9-12.12H6.47L9.39,65.57H8.06Zm-.25-1.14L5.92,55.93,4.8,61.09Z" transform="translate(-2.21 -1.46)"/><path class="cls-2" d="M16.38,58.56A2.71,2.71,0,0,1,15,59.71l1.73,5.86H15.42l-1.71-5.68H12.07l0,5.68H10.79V53.44h3.06a3,3,0,0,1,1.62.42A2.86,2.86,0,0,1,16.53,55a3.65,3.65,0,0,1,.37,1.63A3.51,3.51,0,0,1,16.38,58.56Zm-4.31.1h1.87a1.54,1.54,0,0,0,1.17-.54,2,2,0,0,0,.51-1.46,2,2,0,0,0-.53-1.45,1.76,1.76,0,0,0-1.29-.54H12.07Z" transform="translate(-2.21 -1.46)"/><path class="cls-2" d="M20.93,54.67H18.32V53.44H24.8v1.23H22.19v10.9H20.93Z" transform="translate(-2.21 -1.46)"/><path class="cls-2" d="M40.8,53.44,39.63,65.57H38.44l-1.28-6-1.26,6H34.71L33.56,53.44h1.17l.74,8.71,1.19-5.27h1l1.19,5.33.74-8.77Z" transform="translate(-2.21 -1.46)"/><path class="cls-2" d="M42.31,53.44h5.74v1.23H43.57v3.87h3.35v1.22H43.57v4.59h4.48v1.22H42.31Z" transform="translate(-2.21 -1.46)"/><path class="cls-2" d="M50.12,53.44h5.74v1.23H51.38v3.87h3.35v1.22H51.38v4.59h4.48v1.22H50.12Z" transform="translate(-2.21 -1.46)"/><path class="cls-2" d="M61.08,58.36l2.85,7.21H62.6l-2.31-5.88-1.15,1.89v4H57.88V53.44h1.26v5.89l3.55-5.89H64Z" transform="translate(-2.21 -1.46)"/><path class="cls-2" d="M75.45,61.6a3.57,3.57,0,0,0-.78,1.18,4.07,4.07,0,0,0-.3,1.57h5v1.22H73.11V64.8a6.44,6.44,0,0,1,.4-2.43,5,5,0,0,1,1-1.63,14.69,14.69,0,0,1,1.61-1.45q.82-.66,1.23-1a3.45,3.45,0,0,0,.64-.82,2.07,2.07,0,0,0,.23-1,1.85,1.85,0,0,0-.52-1.36,1.92,1.92,0,0,0-1.42-.53,1.84,1.84,0,0,0-1.42.55,1.93,1.93,0,0,0-.53,1.39H73.07A3.06,3.06,0,0,1,74,54.2a3.19,3.19,0,0,1,2.32-.87,3.7,3.7,0,0,1,1.59.35A2.74,2.74,0,0,1,79,54.75a3.64,3.64,0,0,1,.1,3.27,3.93,3.93,0,0,1-.83,1.11c-.32.3-.81.71-1.46,1.22A15.23,15.23,0,0,0,75.45,61.6Z" transform="translate(-2.21 -1.46)"/><path class="cls-2" d="M81.4,54.72a2.67,2.67,0,0,1,1.11-1,3.35,3.35,0,0,1,1.58-.37,3.28,3.28,0,0,1,1.57.37,2.64,2.64,0,0,1,1.12,1,3.14,3.14,0,0,1,.41,1.62v6.35a2.87,2.87,0,0,1-.89,2.21,3.08,3.08,0,0,1-2.21.82,3.39,3.39,0,0,1-1.57-.36,2.73,2.73,0,0,1-1.11-1A3,3,0,0,1,81,62.69V56.34A3.14,3.14,0,0,1,81.4,54.72ZM82.75,64a1.95,1.95,0,0,0,2.68,0,1.82,1.82,0,0,0,.5-1.27V56.36a1.88,1.88,0,0,0-.5-1.29,1.92,1.92,0,0,0-2.68,0,1.85,1.85,0,0,0-.5,1.3v6.32A1.81,1.81,0,0,0,82.75,64Z" transform="translate(-2.21 -1.46)"/><path class="cls-2" d="M91.07,61.6a3.91,3.91,0,0,0-.78,1.18,4.26,4.26,0,0,0-.3,1.57h5v1.22H88.73V64.8a6.64,6.64,0,0,1,.4-2.43,5.12,5.12,0,0,1,1-1.63,15.69,15.69,0,0,1,1.61-1.45q.83-.66,1.23-1a3.21,3.21,0,0,0,.64-.82,2,2,0,0,0,.23-1,1.85,1.85,0,0,0-.52-1.36,1.9,1.9,0,0,0-1.42-.53,1.85,1.85,0,0,0-1.42.55A1.92,1.92,0,0,0,90,56.5H88.7a3,3,0,0,1,.89-2.3,3.15,3.15,0,0,1,2.31-.87,3.63,3.63,0,0,1,1.59.35,2.74,2.74,0,0,1,1.17,1.07,3.16,3.16,0,0,1,.45,1.73A3.27,3.27,0,0,1,94.76,58a3.91,3.91,0,0,1-.82,1.11c-.33.3-.81.71-1.46,1.22A15.56,15.56,0,0,0,91.07,61.6Z" transform="translate(-2.21 -1.46)"/><path class="cls-2" d="M102.38,60.19a3.86,3.86,0,0,1,.48,1.93,4,4,0,0,1-.41,1.76,3.37,3.37,0,0,1-1.18,1.33,3.1,3.1,0,0,1-1.75.51,3.3,3.3,0,0,1-3.17-2.4l1.2-.32a2.34,2.34,0,0,0,.74,1.09,1.83,1.83,0,0,0,1.23.46,1.78,1.78,0,0,0,1-.33,2.36,2.36,0,0,0,.77-.88,2.64,2.64,0,0,0,.28-1.22,2.56,2.56,0,0,0-.3-1.24,2.35,2.35,0,0,0-.81-.87,2.14,2.14,0,0,0-1.1-.3h-.85V58.48h.85a1.74,1.74,0,0,0,1.35-.59,2.07,2.07,0,0,0,.52-1.41,2.18,2.18,0,0,0-.5-1.39,1.55,1.55,0,0,0-1.23-.62,1.59,1.59,0,0,0-1.24.59,2.22,2.22,0,0,0-.52,1.41H96.51A3.58,3.58,0,0,1,96.84,55a2.93,2.93,0,0,1,1-1.2,2.77,2.77,0,0,1,1.65-.48,2.88,2.88,0,0,1,1.69.48,2.93,2.93,0,0,1,1,1.2,3.78,3.78,0,0,1,.32,1.5,3.15,3.15,0,0,1-.38,1.55,2.4,2.4,0,0,1-.92,1A2.83,2.83,0,0,1,102.38,60.19Z" transform="translate(-2.21 -1.46)"/></svg>