<?xml version="1.0" encoding="utf-8"?>
<!-- Generator: Adobe Illustrator 23.1.1, SVG Export Plug-In . SVG Version: 6.00 Build 0)  -->
<svg version="1.1" id="Livello_1" xmlns="http://www.w3.org/2000/svg" xmlns:xlink="http://www.w3.org/1999/xlink" x="0px" y="0px"
	 viewBox="0 0 185.5 186.3" style="enable-background:new 0 0 185.5 186.3;" xml:space="preserve">
<style type="text/css">
	.st0{fill:#1C39BB;stroke:#1C39BB;stroke-width:0.15;stroke-miterlimit:10;}
	.st1{fill:#1C39BB;}
</style>
<path class="st0" d="M179.7,173.6c0,0.9-0.3,1.6-0.9,2.2c-0.6,0.6-1.4,1-2.4,1s-1.8-0.3-2.4-1c-0.6-0.6-0.9-1.4-0.9-2.2v-4.5
	c0.7-1.6,1.8-2.3,3.3-2.3c1,0,1.8,0.3,2.4,0.9c0.6,0.6,0.9,1.4,0.9,2.3L179.7,173.6L179.7,173.6z M176.4,164.6
	c-1.3,0-2.4,0.4-3.3,1.2v-3.6c0-0.9,0.3-1.7,0.9-2.3c0.6-0.7,1.4-1,2.4-1s1.8,0.3,2.4,1c0.6,0.7,0.9,1.4,0.9,2.3h2.2
	c0-1.1-0.2-2.1-0.7-2.9c-0.5-0.8-1.1-1.4-2-1.9c-0.8-0.4-1.8-0.7-2.8-0.7s-2,0.2-2.8,0.7c-0.8,0.4-1.5,1.1-2,1.9
	c-0.5,0.8-0.7,1.8-0.7,2.9v11.4c0,1.1,0.2,2.1,0.7,2.9c0.5,0.8,1.2,1.4,2,1.9c0.8,0.4,1.8,0.6,2.8,0.6c1.6,0,2.9-0.5,3.9-1.5
	s1.6-2.3,1.6-3.9V170c0-1.1-0.2-2-0.7-2.9c-0.5-0.8-1.1-1.5-2-1.9C178.4,164.8,177.5,164.6,176.4,164.6 M159.2,173.6v-11.3
	c0-0.9,0.3-1.7,0.9-2.3c0.6-0.6,1.4-1,2.4-1s1.8,0.3,2.4,1c0.6,0.7,0.9,1.4,0.9,2.3v11.3c0,0.9-0.3,1.6-0.9,2.3
	c-0.6,0.6-1.4,1-2.4,1s-1.8-0.3-2.4-0.9C159.5,175.2,159.2,174.5,159.2,173.6 M156.9,162.3v11.3c0,1.1,0.2,2.1,0.7,2.9
	c0.5,0.8,1.2,1.4,2,1.9c0.8,0.4,1.8,0.6,2.8,0.6c1.6,0,2.9-0.5,3.9-1.5s1.6-2.3,1.6-3.9v-11.3c0-1.1-0.2-2.1-0.7-2.9
	c-0.5-0.8-1.1-1.4-2-1.9c-0.8-0.4-1.8-0.7-2.8-0.7s-2,0.2-2.8,0.7c-0.8,0.4-1.5,1.1-2,1.9C157.2,160.2,156.9,161.2,156.9,162.3
	 M146.3,178.9c0.6,0,1-0.2,1.4-0.6c0.4-0.4,0.6-0.9,0.6-1.4s-0.2-1-0.6-1.4c-0.4-0.4-0.9-0.6-1.4-0.6s-1,0.2-1.4,0.6
	c-0.4,0.4-0.6,0.9-0.6,1.4s0.2,1,0.6,1.4C145.3,178.8,145.8,178.9,146.3,178.9 M140.4,170.8h-2.2v-5.4H136v5.4h-4.6
	c2.4-5.1,3.9-9.7,4.5-13.7h-2.4c-0.6,4.1-2.3,8.9-5.1,14.4v1.5h7.5v5.7h2.2V173h2.2v-2.2H140.4z M70.3,159.3v-2.2H59.7v11.1l2.2,0.6
	c0.2-1,0.6-1.8,1.1-2.4c0.5-0.6,1.2-0.9,2.1-0.9c0.9,0,1.6,0.3,2.1,1c0.5,0.6,0.8,1.4,0.8,2.4v5c0,0.8-0.3,1.5-0.9,2.1
	s-1.4,0.9-2.4,0.9c-0.8,0-1.5-0.2-2-0.6c-0.5-0.4-0.9-1-1.1-1.8l-2.1,0.6c0.2,1.3,0.8,2.3,1.8,3s2.2,1.1,3.5,1.1
	c1.6,0,2.9-0.5,4-1.5c1-1,1.6-2.3,1.6-3.9v-4.9c0-1.6-0.5-2.9-1.5-3.9s-2.2-1.4-3.7-1.4c-1.2,0-2.3,0.3-3.1,1v-5.1h8.2V159.3z
	 M47.9,173.6v-11.3c0-0.9,0.3-1.7,0.9-2.3c0.6-0.6,1.4-1,2.4-1s1.8,0.3,2.4,1s0.9,1.4,0.9,2.3v11.3c0,0.9-0.3,1.6-0.9,2.3
	s-1.4,1-2.4,1s-1.8-0.3-2.4-0.9C48.2,175.2,47.9,174.5,47.9,173.6 M45.7,162.3v11.3c0,1.1,0.2,2.1,0.7,2.9c0.5,0.8,1.2,1.4,2,1.9
	c0.8,0.4,1.8,0.6,2.8,0.6c1.6,0,2.9-0.5,3.9-1.5s1.6-2.3,1.6-3.9v-11.3c0-1.1-0.2-2.1-0.7-2.9c-0.5-0.8-1.1-1.4-2-1.9
	c-0.8-0.4-1.8-0.7-2.8-0.7s-2,0.2-2.8,0.7c-0.8,0.4-1.5,1.1-2,1.9C45.9,160.2,45.7,161.2,45.7,162.3 M35,178.9c0.6,0,1-0.2,1.4-0.6
	c0.4-0.4,0.6-0.9,0.6-1.4s-0.2-1-0.6-1.4c-0.4-0.4-0.9-0.6-1.4-0.6s-1,0.2-1.4,0.6c-0.4,0.4-0.6,0.9-0.6,1.4s0.2,1,0.6,1.4
	C34,178.8,34.5,178.9,35,178.9 M17.8,157.1v2.2h8.7c-0.1,1-0.4,2-0.8,2.9s-1,2.1-1.9,3.6c-0.1,0.3-0.3,0.5-0.5,0.8s-0.3,0.6-0.5,0.9
	c-1.1,1.9-1.8,3.6-2.1,5.3c-0.4,1.7-0.5,3.7-0.5,5.9h2.2c0-2,0.1-3.7,0.4-5.3c0.3-1.5,0.9-3.2,1.9-4.9l1.1-1.9
	c0.7-1.1,1.2-2,1.6-2.7s0.7-1.6,1-2.5s0.4-2,0.4-3v-1.3H17.8z M10.5,169.4c1.2-0.9,2-1.6,2.6-2.2c0.6-0.5,1.1-1.2,1.5-2
	s0.6-1.7,0.6-2.7c0-1.2-0.3-2.2-0.8-3.1c-0.5-0.8-1.2-1.5-2.1-1.9s-1.8-0.6-2.8-0.6c-1.7,0-3.1,0.5-4.1,1.5c-1.1,1-1.6,2.4-1.6,4.1
	H6c0-1,0.3-1.8,0.9-2.5s1.5-1,2.5-1s1.9,0.3,2.5,0.9c0.6,0.6,0.9,1.4,0.9,2.4c0,0.6-0.1,1.2-0.4,1.7c-0.3,0.5-0.7,1-1.1,1.5
	c-0.5,0.5-1.2,1.1-2.2,1.9c-1.2,1-2.2,1.8-2.9,2.6s-1.3,1.7-1.8,2.9s-0.7,2.6-0.7,4.3v1.4h11.1v-2.2H6c0-1.1,0.2-2,0.5-2.8
	s0.8-1.5,1.4-2.1C8.6,171,9.4,170.3,10.5,169.4"/>
<path class="st0" d="M179.1,105.5c0.6-0.4,1.2-1,1.6-1.8c0.4-0.8,0.7-1.7,0.7-2.8c0-0.9-0.2-1.8-0.6-2.7c-0.4-0.9-1-1.6-1.8-2.1
	c-0.8-0.6-1.8-0.9-3-0.9s-2.1,0.3-2.9,0.9c-0.8,0.6-1.4,1.3-1.8,2.1c-0.4,0.9-0.6,1.7-0.6,2.6h2.2c0-1,0.3-1.8,0.9-2.5
	c0.6-0.7,1.3-1.1,2.2-1.1s1.6,0.4,2.2,1.1c0.6,0.7,0.9,1.6,0.9,2.5c0,1-0.3,1.8-0.9,2.5c-0.6,0.7-1.4,1.1-2.4,1.1h-1.5v2.2h1.5
	c0.7,0,1.4,0.2,2,0.5c0.6,0.4,1.1,0.9,1.4,1.5c0.4,0.7,0.5,1.4,0.5,2.2c0,0.8-0.2,1.5-0.5,2.2s-0.8,1.2-1.4,1.6
	c-0.6,0.4-1.2,0.6-1.8,0.6c-0.8,0-1.5-0.3-2.2-0.8c-0.6-0.5-1.1-1.2-1.3-1.9l-2.1,0.6c0.4,1.3,1.1,2.3,2.1,3.1
	c1,0.8,2.2,1.2,3.5,1.2c1.2,0,2.2-0.3,3.1-0.9s1.6-1.4,2.1-2.4s0.7-2,0.7-3.1c0-1.3-0.3-2.4-0.9-3.4
	C180.5,106.6,179.9,105.9,179.1,105.5 M163.5,107.9c1.2-0.9,2-1.6,2.6-2.2c0.6-0.5,1.1-1.2,1.5-2s0.6-1.7,0.6-2.7
	c0-1.2-0.3-2.2-0.8-3.1c-0.5-0.8-1.2-1.5-2.1-1.9c-0.9-0.4-1.8-0.6-2.8-0.6c-1.7,0-3.1,0.5-4.1,1.5c-1.1,1-1.6,2.4-1.6,4.1h2.2
	c0-1,0.3-1.8,0.9-2.5c0.6-0.7,1.5-1,2.5-1c1.1,0,1.9,0.3,2.5,0.9s0.9,1.4,0.9,2.4c0,0.6-0.1,1.2-0.4,1.7c-0.3,0.5-0.7,1-1.1,1.5
	c-0.5,0.5-1.2,1.1-2.2,1.9c-1.2,1-2.2,1.8-2.9,2.6c-0.7,0.8-1.3,1.7-1.8,2.9c-0.5,1.2-0.7,2.6-0.7,4.3v1.4h11.1v-2.2H159
	c0-1.1,0.2-2,0.5-2.8s0.8-1.5,1.4-2.1C161.6,109.5,162.4,108.7,163.5,107.9 M145.3,112v-11.2c0-0.9,0.3-1.7,0.9-2.3
	c0.6-0.6,1.4-1,2.4-1s1.8,0.3,2.4,1c0.6,0.7,0.9,1.4,0.9,2.3v11.3c0,0.9-0.3,1.6-0.9,2.3c-0.6,0.6-1.4,1-2.4,1s-1.8-0.3-2.4-0.9
	C145.6,113.7,145.3,112.9,145.3,112 M143,100.7V112c0,1.1,0.2,2.1,0.7,2.9s1.2,1.4,2,1.9c0.8,0.4,1.8,0.6,2.8,0.6
	c1.6,0,2.9-0.5,3.9-1.5s1.6-2.3,1.6-3.9v-11.3c0-1.1-0.2-2.1-0.7-2.9s-1.1-1.4-2-1.9c-0.8-0.4-1.8-0.7-2.8-0.7s-2,0.2-2.8,0.7
	c-0.8,0.4-1.5,1.1-2,1.9C143.3,98.7,143,99.6,143,100.7 M135.7,107.9c1.2-0.9,2-1.6,2.6-2.2c0.6-0.5,1.1-1.2,1.5-2s0.6-1.7,0.6-2.7
	c0-1.2-0.3-2.2-0.8-3.1c-0.5-0.8-1.2-1.5-2.1-1.9c-0.9-0.4-1.8-0.6-2.8-0.6c-1.7,0-3.1,0.5-4.1,1.5c-1.1,1-1.6,2.4-1.6,4.1h2.2
	c0-1,0.3-1.8,0.9-2.5c0.6-0.7,1.5-1,2.5-1c1.1,0,1.9,0.3,2.5,0.9s0.9,1.4,0.9,2.4c0,0.6-0.1,1.2-0.4,1.7c-0.3,0.5-0.7,1-1.1,1.5
	c-0.5,0.5-1.2,1.1-2.2,1.9c-1.2,1-2.2,1.8-2.9,2.6c-0.7,0.8-1.3,1.7-1.8,2.9c-0.5,1.2-0.7,2.6-0.7,4.3v1.4H140v-2.2h-8.8
	c0-1.1,0.2-2,0.5-2.8s0.8-1.5,1.4-2.1S134.6,108.7,135.7,107.9 M112.8,95.6h-2.4l-6.3,10.5V95.6h-2.2v21.6h2.2v-7.1l2.1-3.4
	l4.1,10.5h2.4l-5.1-12.9L112.8,95.6z M88.1,117.2h10.2V115h-8v-8.2h6v-2.2h-6v-6.9h8v-2.1H88.1V117.2z M74.2,117.2h10.2V115h-8v-8.2
	h6v-2.2h-6v-6.9h8v-2.1H74.2V117.2z M69.3,95.6L68,111.2l-2.1-9.5h-1.8l-2.1,9.4l-1.3-15.5h-2.1l2.1,21.6h2.1l2.2-10.7l2.3,10.7h2.1
	l2.1-21.6H69.3z M36.1,117.2h2.2V97.8h4.6v-2.2H31.4v2.2H36L36.1,117.2L36.1,117.2z M20.3,97.8h3.1c0.9,0,1.7,0.3,2.3,1
	c0.6,0.6,0.9,1.5,0.9,2.6s-0.3,2-0.9,2.6s-1.3,1-2.1,1h-3.3V97.8z M28.9,101.3c0-1.1-0.2-2-0.7-2.9c-0.4-0.9-1.1-1.6-1.9-2.1
	s-1.7-0.7-2.8-0.7h-5.4v21.6h2.2v-10.1h2.9l3,10.1h2.3l-3.1-10.4c1.1-0.4,1.9-1.1,2.5-2C28.6,103.7,28.9,102.6,28.9,101.3
	 M7.4,109.2l2-9.2l2.1,9.2H7.4z M13.2,117.2h2.3l-5.2-21.6h-2l-5.2,21.6h2.4l1.3-6h4.9L13.2,117.2z"/>
<path class="st0" d="M174.3,78.4l2-9.2l2.1,9.2H174.3z M180.1,86.4h2.4l-5.2-21.6h-2l-5.2,21.6h2.4l1.3-6h4.9L180.1,86.4z
	 M151.7,64.8V81l-6.2-16.2H143v21.6h2.2V70.5l6.2,15.9h2.4V64.8H151.7z M106.8,84.5c-1,0-1.8-0.3-2.4-0.9s-0.9-1.4-0.9-2.3V70
	c0-0.9,0.3-1.6,0.9-2.3c0.6-0.6,1.4-1,2.4-1s1.7,0.3,2.4,1c0.6,0.7,0.9,1.4,0.9,2.3v11.3c0,0.9-0.3,1.6-0.9,2.2
	C108.5,84.2,107.7,84.5,106.8,84.5 M106.8,86.7c1.6,0,2.9-0.5,3.9-1.5s1.6-2.3,1.6-3.9V70c0-1.1-0.2-2.1-0.7-2.9s-1.2-1.4-2-1.9
	c-0.8-0.4-1.8-0.7-2.8-0.7s-2,0.2-2.8,0.7c-0.8,0.4-1.5,1.1-2,1.9s-0.7,1.8-0.7,2.9v11.3c0,1.1,0.2,2,0.7,2.9c0.5,0.8,1.2,1.4,2,1.9
	C104.8,86.5,105.7,86.7,106.8,86.7 M82.3,64.8l-3.4,11.9l-3.3-11.9h-2.5v21.6h2.2V71.2l2.8,9.8h1.6l2.8-10v15.5h2.2V64.8H82.3z
	 M60.2,86.4h10.3v-2.2h-8V76h6v-2.2h-6v-6.9h8v-2.2H60.2V86.4z"/>
<path class="st0" d="M174.3,47.7l2-9.2l2.1,9.2H174.3z M180.1,55.6h2.4L177.3,34h-2l-5.1,21.6h2.4l1.3-6h4.9L180.1,55.6z
	 M157.6,55.6h10.2v-2.2h-8v-8.2h6V43h-6v-6.9h8v-2.2h-10.2V55.6z M151.7,34v16.2L145.5,34H143v21.6h2.2V39.7l6.3,15.9h2.4V34H151.7z
	 M132.6,47.7l2-9.2l2.1,9.2H132.6z M138.4,55.6h2.4L135.5,34h-2l-5.1,21.6h2.4l1.3-6h4.9L138.4,55.6z M117.7,36.2h3.1
	c0.9,0,1.7,0.3,2.3,1s0.9,1.5,0.9,2.6s-0.3,2-0.9,2.6s-1.3,1-2.1,1h-3.3V36.2z M126.3,39.8c0-1.1-0.2-2-0.7-2.9
	c-0.4-0.9-1.1-1.6-1.9-2.1s-1.8-0.8-2.9-0.8h-5.4v21.6h2.2V45.5h2.9l3,10.1h2.2l-3.1-10.5c1.1-0.4,1.9-1.1,2.5-2
	C126,42.2,126.3,41.1,126.3,39.8 M106.8,53.7c-1,0-1.8-0.3-2.4-0.9c-0.6-0.6-0.9-1.4-0.9-2.3V39.2c0-0.9,0.3-1.6,0.9-2.3
	c0.6-0.6,1.4-1,2.4-1s1.7,0.3,2.4,1c0.6,0.7,0.9,1.4,0.9,2.3v11.3c0,0.9-0.3,1.6-0.9,2.2C108.5,53.4,107.7,53.7,106.8,53.7
	 M106.8,55.9c1.6,0,2.9-0.5,3.9-1.5s1.6-2.3,1.6-3.9V39.2c0-1.1-0.2-2.1-0.7-2.9c-0.5-0.8-1.2-1.4-2-1.9c-0.8-0.4-1.8-0.7-2.8-0.7
	s-2,0.2-2.8,0.7c-0.8,0.4-1.5,1.1-2,1.9s-0.7,1.8-0.7,2.9v11.3c0,1.1,0.2,2,0.7,2.9c0.5,0.8,1.2,1.4,2,1.9
	C104.8,55.7,105.7,55.9,106.8,55.9 M90,43.3v-7.1h3.1c0.9,0,1.7,0.3,2.3,1c0.6,0.6,0.9,1.5,0.9,2.6s-0.3,2-0.9,2.6s-1.3,1-2.1,1
	L90,43.3L90,43.3z M87.7,55.6h2.2V45.5h3.2c1.1,0,2.1-0.3,2.9-0.8s1.4-1.2,1.9-2.1c0.4-0.9,0.7-1.8,0.7-2.9c0-1.1-0.2-2-0.7-2.9
	c-0.4-0.9-1.1-1.6-1.9-2.1s-1.8-0.8-2.9-0.8h-5.5v21.7H87.7z M82.3,34l-3.4,11.9L75.6,34h-2.5v21.6h2.2V40.4l2.8,9.8h1.6l2.8-10
	v15.4h2.2V34H82.3z M60.2,55.6h10.3v-2.2h-8v-8.2h6V43h-6v-6.9h8v-2.2H60.2V55.6z M50,55.6h2.2V36.2h4.6V34H45.3v2.2h4.6v19.4H50z
	 M40.4,34v16.2L34.2,34h-2.5v21.6h2.2V39.7l6.3,15.9h2.4V34H40.4z M23.3,53.7c-1,0-1.8-0.3-2.4-0.9c-0.6-0.6-0.9-1.4-0.9-2.3V39.2
	c0-0.9,0.3-1.6,0.9-2.3c0.6-0.6,1.4-1,2.4-1s1.7,0.3,2.4,1c0.6,0.7,0.9,1.4,0.9,2.3v11.3c0,0.9-0.3,1.6-0.9,2.2
	C25,53.4,24.2,53.7,23.3,53.7 M23.3,55.9c1.6,0,2.9-0.5,3.9-1.5s1.6-2.3,1.6-3.9V39.2c0-1.1-0.2-2.1-0.7-2.9c-0.5-0.8-1.2-1.4-2-1.9
	c-0.8-0.4-1.8-0.7-2.8-0.7s-2,0.2-2.8,0.7c-0.8,0.4-1.5,1.1-2,1.9s-0.7,1.8-0.7,2.9v11.3c0,1.1,0.2,2,0.7,2.9c0.5,0.8,1.2,1.4,2,1.9
	C21.3,55.7,22.3,55.9,23.3,55.9 M9.6,55.9c1.6,0,2.9-0.5,3.9-1.5s1.6-2.3,1.6-4V50h-2.2v0.4c0,0.9-0.3,1.7-0.9,2.3
	c-0.6,0.6-1.4,0.9-2.4,0.9s-1.8-0.3-2.4-1c-0.6-0.6-0.9-1.4-0.9-2.3V39.2c0-0.9,0.3-1.6,0.9-2.3s1.4-1,2.4-1s1.7,0.3,2.4,1
	c0.6,0.7,0.9,1.4,0.9,2.3v0.4h2.2v-0.4c0-1.7-0.5-3-1.6-4c-1-1-2.4-1.5-4-1.5c-1,0-2,0.2-2.8,0.7c-0.8,0.4-1.5,1.1-2,1.9
	C4.2,37.1,4,38.1,4,39.2v11.3c0,1.1,0.2,2.1,0.7,2.9c0.5,0.8,1.2,1.4,2,1.9C7.6,55.7,8.6,55.9,9.6,55.9"/>
<path class="st0" d="M117.7,5.4h3.1c0.9,0,1.7,0.3,2.3,1C123.7,7,124,7.9,124,9s-0.3,2-0.9,2.6s-1.3,1-2.1,1h-3.3V5.4z M126.3,9
	c0-1.1-0.2-2-0.7-2.9c-0.4-0.9-1.1-1.6-1.9-2.1s-1.8-0.8-2.9-0.8h-5.4v21.6h2.2V14.7h2.9l3,10.1h2.2l-3.1-10.5
	c1.1-0.4,1.9-1.1,2.5-2C126,11.4,126.3,10.3,126.3,9 M9.6,25.1c1.6,0,2.9-0.5,3.9-1.5s1.6-2.3,1.6-4v-0.4h-2.2v0.4
	c0,0.9-0.3,1.7-0.9,2.3c-0.6,0.6-1.4,0.9-2.4,0.9s-1.8-0.3-2.4-1c-0.6-0.6-0.9-1.4-0.9-2.3V8.4c0-0.9,0.3-1.6,0.9-2.3s1.4-1,2.4-1
	s1.7,0.3,2.4,1c0.6,0.7,0.9,1.4,0.9,2.3v0.4h2.2V8.4c0-1.7-0.5-3-1.6-4c-1-1-2.4-1.5-4-1.5c-1,0-2,0.2-2.8,0.7
	c-0.8,0.5-1.4,1.2-1.9,2S4.1,7.3,4.1,8.4v11.3c0,1.1,0.2,2.1,0.7,2.9s1.2,1.4,2,1.9C7.6,24.9,8.6,25.1,9.6,25.1"/>
<rect x="2.7" y="28.4" class="st1" width="13.8" height="2.1"/>
<rect x="113.9" y="28.4" class="st1" width="13.8" height="2.1"/>
<rect x="2.7" y="59.2" class="st1" width="180.4" height="2.1"/>
<rect x="58.4" y="89.9" class="st1" width="27.9" height="2.1"/>
<rect x="2.7" y="120.7" class="st1" width="125.2" height="2.1"/>
<rect x="72.3" y="182.2" class="st1" width="55.6" height="2.1"/>
<rect x="100.2" y="89.9" class="st1" width="13.8" height="2.1"/>
<rect x="141.8" y="89.9" class="st1" width="14" height="2.1"/>
<rect x="169.3" y="89.9" class="st1" width="13.8" height="2.1"/>
</svg>
