<svg width="186" height="187" viewBox="0 0 186 187" fill="none" xmlns="http://www.w3.org/2000/svg">
<g clip-path="url(#clip0_102_2)">
<path d="M179.7 173.6C179.7 174.5 179.4 175.2 178.8 175.8C178.2 176.4 177.4 176.8 176.4 176.8C175.4 176.8 174.6 176.5 174 175.8C173.4 175.2 173.1 174.4 173.1 173.6V169.1C173.8 167.5 174.9 166.8 176.4 166.8C177.4 166.8 178.2 167.1 178.8 167.7C179.4 168.3 179.7 169.1 179.7 170V173.6ZM176.4 164.6C175.1 164.6 174 165 173.1 165.8V162.2C173.1 161.3 173.4 160.5 174 159.9C174.6 159.2 175.4 158.9 176.4 158.9C177.4 158.9 178.2 159.2 178.8 159.9C179.4 160.6 179.7 161.3 179.7 162.2H181.9C181.9 161.1 181.7 160.1 181.2 159.3C180.7 158.5 180.1 157.9 179.2 157.4C178.4 157 177.4 156.7 176.4 156.7C175.4 156.7 174.4 156.9 173.6 157.4C172.8 157.8 172.1 158.5 171.6 159.3C171.1 160.1 170.9 161.1 170.9 162.2V173.6C170.9 174.7 171.1 175.7 171.6 176.5C172.1 177.3 172.8 177.9 173.6 178.4C174.4 178.8 175.4 179 176.4 179C178 179 179.3 178.5 180.3 177.5C181.3 176.5 181.9 175.2 181.9 173.6V170C181.9 168.9 181.7 168 181.2 167.1C180.7 166.3 180.1 165.6 179.2 165.2C178.4 164.8 177.5 164.6 176.4 164.6ZM159.2 173.6V162.3C159.2 161.4 159.5 160.6 160.1 160C160.7 159.4 161.5 159 162.5 159C163.5 159 164.3 159.3 164.9 160C165.5 160.7 165.8 161.4 165.8 162.3V173.6C165.8 174.5 165.5 175.2 164.9 175.9C164.3 176.5 163.5 176.9 162.5 176.9C161.5 176.9 160.7 176.6 160.1 176C159.5 175.2 159.2 174.5 159.2 173.6ZM156.9 162.3V173.6C156.9 174.7 157.1 175.7 157.6 176.5C158.1 177.3 158.8 177.9 159.6 178.4C160.4 178.8 161.4 179 162.4 179C164 179 165.3 178.5 166.3 177.5C167.3 176.5 167.9 175.2 167.9 173.6V162.3C167.9 161.2 167.7 160.2 167.2 159.4C166.7 158.6 166.1 158 165.2 157.5C164.4 157.1 163.4 156.8 162.4 156.8C161.4 156.8 160.4 157 159.6 157.5C158.8 157.9 158.1 158.6 157.6 159.4C157.2 160.2 156.9 161.2 156.9 162.3ZM146.3 178.9C146.9 178.9 147.3 178.7 147.7 178.3C148.1 177.9 148.3 177.4 148.3 176.9C148.3 176.4 148.1 175.9 147.7 175.5C147.3 175.1 146.8 174.9 146.3 174.9C145.8 174.9 145.3 175.1 144.9 175.5C144.5 175.9 144.3 176.4 144.3 176.9C144.3 177.4 144.5 177.9 144.9 178.3C145.3 178.8 145.8 178.9 146.3 178.9ZM140.4 170.8H138.2V165.4H136V170.8H131.4C133.8 165.7 135.3 161.1 135.9 157.1H133.5C132.9 161.2 131.2 166 128.4 171.5V173H135.9V178.7H138.1V173H140.3V170.8H140.4ZM70.3 159.3V157.1H59.7V168.2L61.9 168.8C62.1 167.8 62.5 167 63 166.4C63.5 165.8 64.2 165.5 65.1 165.5C66 165.5 66.7 165.8 67.2 166.5C67.7 167.1 68 167.9 68 168.9V173.9C68 174.7 67.7 175.4 67.1 176C66.5 176.6 65.7 176.9 64.7 176.9C63.9 176.9 63.2 176.7 62.7 176.3C62.2 175.9 61.8 175.3 61.6 174.5L59.5 175.1C59.7 176.4 60.3 177.4 61.3 178.1C62.3 178.8 63.5 179.2 64.8 179.2C66.4 179.2 67.7 178.7 68.8 177.7C69.8 176.7 70.4 175.4 70.4 173.8V168.9C70.4 167.3 69.9 166 68.9 165C67.9 164 66.7 163.6 65.2 163.6C64 163.6 62.9 163.9 62.1 164.6V159.5H70.3V159.3ZM47.9 173.6V162.3C47.9 161.4 48.2 160.6 48.8 160C49.4 159.4 50.2 159 51.2 159C52.2 159 53 159.3 53.6 160C54.2 160.7 54.5 161.4 54.5 162.3V173.6C54.5 174.5 54.2 175.2 53.6 175.9C53 176.6 52.2 176.9 51.2 176.9C50.2 176.9 49.4 176.6 48.8 176C48.2 175.2 47.9 174.5 47.9 173.6ZM45.7 162.3V173.6C45.7 174.7 45.9 175.7 46.4 176.5C46.9 177.3 47.6 177.9 48.4 178.4C49.2 178.8 50.2 179 51.2 179C52.8 179 54.1 178.5 55.1 177.5C56.1 176.5 56.7 175.2 56.7 173.6V162.3C56.7 161.2 56.5 160.2 56 159.4C55.5 158.6 54.9 158 54 157.5C53.2 157.1 52.2 156.8 51.2 156.8C50.2 156.8 49.2 157 48.4 157.5C47.6 157.9 46.9 158.6 46.4 159.4C45.9 160.2 45.7 161.2 45.7 162.3ZM35 178.9C35.6 178.9 36 178.7 36.4 178.3C36.8 177.9 37 177.4 37 176.9C37 176.4 36.8 175.9 36.4 175.5C36 175.1 35.5 174.9 35 174.9C34.5 174.9 34 175.1 33.6 175.5C33.2 175.9 33 176.4 33 176.9C33 177.4 33.2 177.9 33.6 178.3C34 178.8 34.5 178.9 35 178.9ZM17.8 157.1V159.3H26.5C26.4 160.3 26.1 161.3 25.7 162.2C25.3 163.1 24.7 164.3 23.8 165.8C23.7 166.1 23.5 166.3 23.3 166.6C23.1 166.9 23 167.2 22.8 167.5C21.7 169.4 21 171.1 20.7 172.8C20.3 174.5 20.2 176.5 20.2 178.7H22.4C22.4 176.7 22.5 175 22.8 173.4C23.1 171.9 23.7 170.2 24.7 168.5L25.8 166.6C26.5 165.5 27 164.6 27.4 163.9C27.8 163.2 28.1 162.3 28.4 161.4C28.7 160.5 28.8 159.4 28.8 158.4V157.1H17.8ZM10.5 169.4C11.7 168.5 12.5 167.8 13.1 167.2C13.7 166.7 14.2 166 14.6 165.2C15 164.4 15.2 163.5 15.2 162.5C15.2 161.3 14.9 160.3 14.4 159.4C13.9 158.6 13.2 157.9 12.3 157.5C11.4 157.1 10.5 156.9 9.50001 156.9C7.80001 156.9 6.40001 157.4 5.40001 158.4C4.30001 159.4 3.80001 160.8 3.80001 162.5H6.00001C6.00001 161.5 6.30001 160.7 6.90001 160C7.50001 159.3 8.40001 159 9.40001 159C10.4 159 11.3 159.3 11.9 159.9C12.5 160.5 12.8 161.3 12.8 162.3C12.8 162.9 12.7 163.5 12.4 164C12.1 164.5 11.7 165 11.3 165.5C10.8 166 10.1 166.6 9.10001 167.4C7.90001 168.4 6.90001 169.2 6.20001 170C5.50001 170.8 4.90001 171.7 4.40001 172.9C3.90001 174.1 3.70001 175.5 3.70001 177.2V178.6H14.8V176.4H6.00001C6.00001 175.3 6.20001 174.4 6.50001 173.6C6.80001 172.8 7.30001 172.1 7.90001 171.5C8.60001 171 9.40001 170.3 10.5 169.4Z" fill="#FF0000" stroke="#FF0000" stroke-width="0.15" stroke-miterlimit="10"/>
<path d="M179.1 105.5C179.7 105.1 180.3 104.5 180.7 103.7C181.1 102.9 181.4 102 181.4 100.9C181.4 100 181.2 99.1 180.8 98.2C180.4 97.3 179.8 96.6 179 96.1C178.2 95.5 177.2 95.2 176 95.2C174.8 95.2 173.9 95.5 173.1 96.1C172.3 96.7 171.7 97.4 171.3 98.2C170.9 99.1 170.7 99.9 170.7 100.8H172.9C172.9 99.8 173.2 99 173.8 98.3C174.4 97.6 175.1 97.2 176 97.2C176.9 97.2 177.6 97.6 178.2 98.3C178.8 99 179.1 99.9 179.1 100.8C179.1 101.8 178.8 102.6 178.2 103.3C177.6 104 176.8 104.4 175.8 104.4H174.3V106.6H175.8C176.5 106.6 177.2 106.8 177.8 107.1C178.4 107.5 178.9 108 179.2 108.6C179.6 109.3 179.7 110 179.7 110.8C179.7 111.6 179.5 112.3 179.2 113C178.9 113.7 178.4 114.2 177.8 114.6C177.2 115 176.6 115.2 176 115.2C175.2 115.2 174.5 114.9 173.8 114.4C173.2 113.9 172.7 113.2 172.5 112.5L170.4 113.1C170.8 114.4 171.5 115.4 172.5 116.2C173.5 117 174.7 117.4 176 117.4C177.2 117.4 178.2 117.1 179.1 116.5C180 115.9 180.7 115.1 181.2 114.1C181.7 113.1 181.9 112.1 181.9 111C181.9 109.7 181.6 108.6 181 107.6C180.5 106.6 179.9 105.9 179.1 105.5ZM163.5 107.9C164.7 107 165.5 106.3 166.1 105.7C166.7 105.2 167.2 104.5 167.6 103.7C168 102.9 168.2 102 168.2 101C168.2 99.8 167.9 98.8 167.4 97.9C166.9 97.1 166.2 96.4 165.3 96C164.4 95.6 163.5 95.4 162.5 95.4C160.8 95.4 159.4 95.9 158.4 96.9C157.3 97.9 156.8 99.3 156.8 101H159C159 100 159.3 99.2 159.9 98.5C160.5 97.8 161.4 97.5 162.4 97.5C163.5 97.5 164.3 97.8 164.9 98.4C165.5 99 165.8 99.8 165.8 100.8C165.8 101.4 165.7 102 165.4 102.5C165.1 103 164.7 103.5 164.3 104C163.8 104.5 163.1 105.1 162.1 105.9C160.9 106.9 159.9 107.7 159.2 108.5C158.5 109.3 157.9 110.2 157.4 111.4C156.9 112.6 156.7 114 156.7 115.7V117.1H167.8V114.9H159C159 113.8 159.2 112.9 159.5 112.1C159.8 111.3 160.3 110.6 160.9 110C161.6 109.5 162.4 108.7 163.5 107.9ZM145.3 112V100.8C145.3 99.9 145.6 99.1 146.2 98.5C146.8 97.9 147.6 97.5 148.6 97.5C149.6 97.5 150.4 97.8 151 98.5C151.6 99.2 151.9 99.9 151.9 100.8V112.1C151.9 113 151.6 113.7 151 114.4C150.4 115 149.6 115.4 148.6 115.4C147.6 115.4 146.8 115.1 146.2 114.5C145.6 113.7 145.3 112.9 145.3 112ZM143 100.7V112C143 113.1 143.2 114.1 143.7 114.9C144.2 115.7 144.9 116.3 145.7 116.8C146.5 117.2 147.5 117.4 148.5 117.4C150.1 117.4 151.4 116.9 152.4 115.9C153.4 114.9 154 113.6 154 112V100.7C154 99.6 153.8 98.6 153.3 97.8C152.8 97 152.2 96.4 151.3 95.9C150.5 95.5 149.5 95.2 148.5 95.2C147.5 95.2 146.5 95.4 145.7 95.9C144.9 96.3 144.2 97 143.7 97.8C143.3 98.7 143 99.6 143 100.7ZM135.7 107.9C136.9 107 137.7 106.3 138.3 105.7C138.9 105.2 139.4 104.5 139.8 103.7C140.2 102.9 140.4 102 140.4 101C140.4 99.8 140.1 98.8 139.6 97.9C139.1 97.1 138.4 96.4 137.5 96C136.6 95.6 135.7 95.4 134.7 95.4C133 95.4 131.6 95.9 130.6 96.9C129.5 97.9 129 99.3 129 101H131.2C131.2 100 131.5 99.2 132.1 98.5C132.7 97.8 133.6 97.5 134.6 97.5C135.7 97.5 136.5 97.8 137.1 98.4C137.7 99 138 99.8 138 100.8C138 101.4 137.9 102 137.6 102.5C137.3 103 136.9 103.5 136.5 104C136 104.5 135.3 105.1 134.3 105.9C133.1 106.9 132.1 107.7 131.4 108.5C130.7 109.3 130.1 110.2 129.6 111.4C129.1 112.6 128.9 114 128.9 115.7V117.1H140V114.9H131.2C131.2 113.8 131.4 112.9 131.7 112.1C132 111.3 132.5 110.6 133.1 110C133.7 109.4 134.6 108.7 135.7 107.9ZM112.8 95.6H110.4L104.1 106.1V95.6H101.9V117.2H104.1V110.1L106.2 106.7L110.3 117.2H112.7L107.6 104.3L112.8 95.6ZM88.1 117.2H98.3V115H90.3V106.8H96.3V104.6H90.3V97.7H98.3V95.6H88.1V117.2ZM74.2 117.2H84.4V115H76.4V106.8H82.4V104.6H76.4V97.7H84.4V95.6H74.2V117.2ZM69.3 95.6L68 111.2L65.9 101.7H64.1L62 111.1L60.7 95.6H58.6L60.7 117.2H62.8L65 106.5L67.3 117.2H69.4L71.5 95.6H69.3ZM36.1 117.2H38.3V97.8H42.9V95.6H31.4V97.8H36L36.1 117.2ZM20.3 97.8H23.4C24.3 97.8 25.1 98.1 25.7 98.8C26.3 99.4 26.6 100.3 26.6 101.4C26.6 102.5 26.3 103.4 25.7 104C25.1 104.6 24.4 105 23.6 105H20.3V97.8ZM28.9 101.3C28.9 100.2 28.7 99.3 28.2 98.4C27.8 97.5 27.1 96.8 26.3 96.3C25.5 95.8 24.6 95.6 23.5 95.6H18.1V117.2H20.3V107.1H23.2L26.2 117.2H28.5L25.4 106.8C26.5 106.4 27.3 105.7 27.9 104.8C28.6 103.7 28.9 102.6 28.9 101.3ZM7.40001 109.2L9.40001 100L11.5 109.2H7.40001ZM13.2 117.2H15.5L10.3 95.6H8.30001L3.10001 117.2H5.50001L6.80001 111.2H11.7L13.2 117.2Z" fill="#FF0000" stroke="#FF0000" stroke-width="0.15" stroke-miterlimit="10"/>
<path d="M174.3 78.4L176.3 69.2L178.4 78.4H174.3ZM180.1 86.4H182.5L177.3 64.8H175.3L170.1 86.4H172.5L173.8 80.4H178.7L180.1 86.4ZM151.7 64.8V81L145.5 64.8H143V86.4H145.2V70.5L151.4 86.4H153.8V64.8H151.7ZM106.8 84.5C105.8 84.5 105 84.2 104.4 83.6C103.8 83 103.5 82.2 103.5 81.3V70C103.5 69.1 103.8 68.4 104.4 67.7C105 67.1 105.8 66.7 106.8 66.7C107.8 66.7 108.5 67 109.2 67.7C109.8 68.4 110.1 69.1 110.1 70V81.3C110.1 82.2 109.8 82.9 109.2 83.5C108.5 84.2 107.7 84.5 106.8 84.5ZM106.8 86.7C108.4 86.7 109.7 86.2 110.7 85.2C111.7 84.2 112.3 82.9 112.3 81.3V70C112.3 68.9 112.1 67.9 111.6 67.1C111.1 66.3 110.4 65.7 109.6 65.2C108.8 64.8 107.8 64.5 106.8 64.5C105.8 64.5 104.8 64.7 104 65.2C103.2 65.6 102.5 66.3 102 67.1C101.5 67.9 101.3 68.9 101.3 70V81.3C101.3 82.4 101.5 83.3 102 84.2C102.5 85 103.2 85.6 104 86.1C104.8 86.5 105.7 86.7 106.8 86.7ZM82.3 64.8L78.9 76.7L75.6 64.8H73.1V86.4H75.3V71.2L78.1 81H79.7L82.5 71V86.5H84.7V64.8H82.3ZM60.2 86.4H70.5V84.2H62.5V76H68.5V73.8H62.5V66.9H70.5V64.7H60.2V86.4Z" fill="#FF0000" stroke="#FF0000" stroke-width="0.15" stroke-miterlimit="10"/>
<path d="M174.3 47.7L176.3 38.5L178.4 47.7H174.3ZM180.1 55.6H182.5L177.3 34H175.3L170.2 55.6H172.6L173.9 49.6H178.8L180.1 55.6ZM157.6 55.6H167.8V53.4H159.8V45.2H165.8V43H159.8V36.1H167.8V33.9H157.6V55.6ZM151.7 34V50.2L145.5 34H143V55.6H145.2V39.7L151.5 55.6H153.9V34H151.7ZM132.6 47.7L134.6 38.5L136.7 47.7H132.6ZM138.4 55.6H140.8L135.5 34H133.5L128.4 55.6H130.8L132.1 49.6H137L138.4 55.6ZM117.7 36.2H120.8C121.7 36.2 122.5 36.5 123.1 37.2C123.7 37.9 124 38.7 124 39.8C124 40.9 123.7 41.8 123.1 42.4C122.5 43 121.8 43.4 121 43.4H117.7V36.2ZM126.3 39.8C126.3 38.7 126.1 37.8 125.6 36.9C125.2 36 124.5 35.3 123.7 34.8C122.9 34.3 121.9 34 120.8 34H115.4V55.6H117.6V45.5H120.5L123.5 55.6H125.7L122.6 45.1C123.7 44.7 124.5 44 125.1 43.1C126 42.2 126.3 41.1 126.3 39.8ZM106.8 53.7C105.8 53.7 105 53.4 104.4 52.8C103.8 52.2 103.5 51.4 103.5 50.5V39.2C103.5 38.3 103.8 37.6 104.4 36.9C105 36.3 105.8 35.9 106.8 35.9C107.8 35.9 108.5 36.2 109.2 36.9C109.8 37.6 110.1 38.3 110.1 39.2V50.5C110.1 51.4 109.8 52.1 109.2 52.7C108.5 53.4 107.7 53.7 106.8 53.7ZM106.8 55.9C108.4 55.9 109.7 55.4 110.7 54.4C111.7 53.4 112.3 52.1 112.3 50.5V39.2C112.3 38.1 112.1 37.1 111.6 36.3C111.1 35.5 110.4 34.9 109.6 34.4C108.8 34 107.8 33.7 106.8 33.7C105.8 33.7 104.8 33.9 104 34.4C103.2 34.8 102.5 35.5 102 36.3C101.5 37.1 101.3 38.1 101.3 39.2V50.5C101.3 51.6 101.5 52.5 102 53.4C102.5 54.2 103.2 54.8 104 55.3C104.8 55.7 105.7 55.9 106.8 55.9ZM90 43.3V36.2H93.1C94 36.2 94.8 36.5 95.4 37.2C96 37.8 96.3 38.7 96.3 39.8C96.3 40.9 96 41.8 95.4 42.4C94.8 43 94.1 43.4 93.3 43.4L90 43.3ZM87.7 55.6H89.9V45.5H93.1C94.2 45.5 95.2 45.2 96 44.7C96.8 44.2 97.4 43.5 97.9 42.6C98.3 41.7 98.6 40.8 98.6 39.7C98.6 38.6 98.4 37.7 97.9 36.8C97.5 35.9 96.8 35.2 96 34.7C95.2 34.2 94.2 33.9 93.1 33.9H87.6V55.6H87.7ZM82.3 34L78.9 45.9L75.6 34H73.1V55.6H75.3V40.4L78.1 50.2H79.7L82.5 40.2V55.6H84.7V34H82.3ZM60.2 55.6H70.5V53.4H62.5V45.2H68.5V43H62.5V36.1H70.5V33.9H60.2V55.6ZM50 55.6H52.2V36.2H56.8V34H45.3V36.2H49.9V55.6H50ZM40.4 34V50.2L34.2 34H31.7V55.6H33.9V39.7L40.2 55.6H42.6V34H40.4ZM23.3 53.7C22.3 53.7 21.5 53.4 20.9 52.8C20.3 52.2 20 51.4 20 50.5V39.2C20 38.3 20.3 37.6 20.9 36.9C21.5 36.3 22.3 35.9 23.3 35.9C24.3 35.9 25 36.2 25.7 36.9C26.3 37.6 26.6 38.3 26.6 39.2V50.5C26.6 51.4 26.3 52.1 25.7 52.7C25 53.4 24.2 53.7 23.3 53.7ZM23.3 55.9C24.9 55.9 26.2 55.4 27.2 54.4C28.2 53.4 28.8 52.1 28.8 50.5V39.2C28.8 38.1 28.6 37.1 28.1 36.3C27.6 35.5 26.9 34.9 26.1 34.4C25.3 34 24.3 33.7 23.3 33.7C22.3 33.7 21.3 33.9 20.5 34.4C19.7 34.8 19 35.5 18.5 36.3C18 37.1 17.8 38.1 17.8 39.2V50.5C17.8 51.6 18 52.5 18.5 53.4C19 54.2 19.7 54.8 20.5 55.3C21.3 55.7 22.3 55.9 23.3 55.9ZM9.6 55.9C11.2 55.9 12.5 55.4 13.5 54.4C14.5 53.4 15.1 52.1 15.1 50.4V50H12.9V50.4C12.9 51.3 12.6 52.1 12 52.7C11.4 53.3 10.6 53.6 9.6 53.6C8.6 53.6 7.8 53.3 7.2 52.6C6.6 52 6.3 51.2 6.3 50.3V39.2C6.3 38.3 6.6 37.6 7.2 36.9C7.8 36.2 8.6 35.9 9.6 35.9C10.6 35.9 11.3 36.2 12 36.9C12.6 37.6 12.9 38.3 12.9 39.2V39.6H15.1V39.2C15.1 37.5 14.6 36.2 13.5 35.2C12.5 34.2 11.1 33.7 9.5 33.7C8.5 33.7 7.5 33.9 6.7 34.4C5.9 34.8 5.2 35.5 4.7 36.3C4.2 37.1 4 38.1 4 39.2V50.5C4 51.6 4.2 52.6 4.7 53.4C5.2 54.2 5.9 54.8 6.7 55.3C7.6 55.7 8.6 55.9 9.6 55.9Z" fill="#FF0000" stroke="#FF0000" stroke-width="0.15" stroke-miterlimit="10"/>
<path d="M117.7 5.4H120.8C121.7 5.4 122.5 5.7 123.1 6.4C123.7 7 124 7.9 124 9C124 10.1 123.7 11 123.1 11.6C122.5 12.2 121.8 12.6 121 12.6H117.7V5.4ZM126.3 9C126.3 7.9 126.1 7 125.6 6.1C125.2 5.2 124.5 4.5 123.7 4C122.9 3.5 121.9 3.2 120.8 3.2H115.4V24.8H117.6V14.7H120.5L123.5 24.8H125.7L122.6 14.3C123.7 13.9 124.5 13.2 125.1 12.3C126 11.4 126.3 10.3 126.3 9ZM9.60001 25.1C11.2 25.1 12.5 24.6 13.5 23.6C14.5 22.6 15.1 21.3 15.1 19.6V19.2H12.9V19.6C12.9 20.5 12.6 21.3 12 21.9C11.4 22.5 10.6 22.8 9.60001 22.8C8.60001 22.8 7.80001 22.5 7.20001 21.8C6.60001 21.2 6.30001 20.4 6.30001 19.5V8.4C6.30001 7.5 6.60001 6.8 7.20001 6.1C7.80001 5.4 8.60001 5.1 9.60001 5.1C10.6 5.1 11.3 5.4 12 6.1C12.6 6.8 12.9 7.5 12.9 8.4V8.8H15.1V8.4C15.1 6.7 14.6 5.4 13.5 4.4C12.5 3.4 11.1 2.9 9.50001 2.9C8.50001 2.9 7.50001 3.1 6.70001 3.6C5.90001 4.1 5.30001 4.8 4.80001 5.6C4.30001 6.4 4.10001 7.3 4.10001 8.4V19.7C4.10001 20.8 4.30001 21.8 4.80001 22.6C5.30001 23.4 6.00001 24 6.80001 24.5C7.60001 24.9 8.60001 25.1 9.60001 25.1Z" fill="#FF0000" stroke="#FF0000" stroke-width="0.15" stroke-miterlimit="10"/>
<path d="M16.5 28.4H2.70001V30.5H16.5V28.4Z" fill="#FF0000"/>
<path d="M127.7 28.4H113.9V30.5H127.7V28.4Z" fill="#FF0000"/>
<path d="M183.1 59.2H2.70001V61.3H183.1V59.2Z" fill="#FF0000"/>
<path d="M86.3 89.9H58.4V92H86.3V89.9Z" fill="#FF0000"/>
<path d="M127.9 120.7H2.70001V122.8H127.9V120.7Z" fill="#FF0000"/>
<path d="M127.9 182.2H72.3V184.3H127.9V182.2Z" fill="#FF0000"/>
<path d="M114 89.9H100.2V92H114V89.9Z" fill="#FF0000"/>
<path d="M155.8 89.9H141.8V92H155.8V89.9Z" fill="#FF0000"/>
<path d="M183.1 89.9H169.3V92H183.1V89.9Z" fill="#FF0000"/>
<rect x="123.241" y="113.701" width="60.884" height="4.77522" transform="rotate(-15.9209 123.241 113.701)" fill="#0E0E0E"/>
<rect x="-23" y="175.453" width="238.761" height="4.77522" transform="rotate(-5.36989 -23 175.453)" fill="#0E0E0E"/>
<path d="M135.592 135C135.104 135 134.859 134.788 134.859 134.365V133.896C134.859 133.558 135.016 133.223 135.328 132.891L138.248 129.814C139.127 128.883 139.931 128.057 140.66 127.334C141.389 126.605 141.754 125.869 141.754 125.127C141.754 124.385 141.568 123.841 141.197 123.496C140.833 123.145 140.367 122.969 139.801 122.969C138.902 122.969 138.277 123.177 137.926 123.594C137.574 124.01 137.32 124.456 137.164 124.932C137.014 125.394 136.741 125.56 136.344 125.43L135.357 125.098C135.038 124.987 134.947 124.681 135.084 124.18C135.338 123.249 135.855 122.451 136.637 121.787C137.418 121.117 138.577 120.781 140.113 120.781C141.715 120.781 142.877 121.195 143.6 122.021C144.322 122.842 144.684 123.734 144.684 124.697C144.684 125.96 144.156 127.07 143.102 128.027C142.047 128.978 141.09 129.906 140.23 130.811L138.57 132.559V132.617C138.961 132.591 139.286 132.578 139.547 132.578H144.107C144.596 132.578 144.84 132.79 144.84 133.213V134.365C144.84 134.788 144.596 135 144.107 135H135.592ZM146.578 128.057C146.578 125.42 146.988 123.548 147.809 122.441C148.629 121.335 149.885 120.781 151.578 120.781C153.271 120.781 154.527 121.335 155.348 122.441C156.168 123.548 156.578 125.42 156.578 128.057C156.578 130.693 156.168 132.565 155.348 133.672C154.527 134.779 153.271 135.332 151.578 135.332C149.885 135.332 148.629 134.779 147.809 133.672C146.988 132.565 146.578 130.693 146.578 128.057ZM149.469 128.057C149.469 129.261 149.566 130.42 149.762 131.533C149.964 132.646 150.569 133.203 151.578 133.203C152.587 133.203 153.189 132.646 153.385 131.533C153.587 130.42 153.688 129.261 153.688 128.057C153.688 126.852 153.587 125.693 153.385 124.58C153.189 123.467 152.587 122.91 151.578 122.91C150.569 122.91 149.964 123.467 149.762 124.58C149.566 125.693 149.469 126.852 149.469 128.057ZM159.029 135C158.541 135 158.297 134.788 158.297 134.365V133.896C158.297 133.558 158.453 133.223 158.766 132.891L161.686 129.814C162.564 128.883 163.368 128.057 164.098 127.334C164.827 126.605 165.191 125.869 165.191 125.127C165.191 124.385 165.006 123.841 164.635 123.496C164.27 123.145 163.805 122.969 163.238 122.969C162.34 122.969 161.715 123.177 161.363 123.594C161.012 124.01 160.758 124.456 160.602 124.932C160.452 125.394 160.178 125.56 159.781 125.43L158.795 125.098C158.476 124.987 158.385 124.681 158.521 124.18C158.775 123.249 159.293 122.451 160.074 121.787C160.855 121.117 162.014 120.781 163.551 120.781C165.152 120.781 166.314 121.195 167.037 122.021C167.76 122.842 168.121 123.734 168.121 124.697C168.121 125.96 167.594 127.07 166.539 128.027C165.484 128.978 164.527 129.906 163.668 130.811L162.008 132.559V132.617C162.398 132.591 162.724 132.578 162.984 132.578H167.545C168.033 132.578 168.277 132.79 168.277 133.213V134.365C168.277 134.788 168.033 135 167.545 135H159.029ZM170.396 131.953C169.973 131.953 169.762 131.742 169.762 131.318V130.029C169.762 129.658 169.859 129.336 170.055 129.062L175.465 121.445C175.706 121.107 176.008 120.938 176.373 120.938H177.809C178.238 120.938 178.453 121.149 178.453 121.572V129.531H179.635C180.058 129.531 180.27 129.743 180.27 130.166V131.318C180.27 131.742 180.061 131.953 179.645 131.953H178.453V134.365C178.453 134.788 178.242 135 177.818 135H176.354C175.93 135 175.719 134.788 175.719 134.365V131.953H170.396ZM172.486 129.531H175.719V125.752C175.719 125.492 175.732 125.231 175.758 124.971H175.719L172.486 129.531Z" fill="black"/>
<path d="M136.064 171.496C135.576 171.496 135.332 171.285 135.332 170.861V169.631C135.332 169.208 135.576 168.996 136.064 168.996H146.104C146.592 168.996 146.836 169.208 146.836 169.631V170.861C146.836 171.285 146.592 171.496 146.104 171.496H142.51V182.463C142.51 182.821 142.347 183 142.021 183H140.146C139.821 183 139.658 182.821 139.658 182.463V171.496H136.064ZM149.512 183C148.991 183 148.73 182.756 148.73 182.268V169.729C148.73 169.24 148.991 168.996 149.512 168.996H152.832C155.332 168.996 157.018 169.305 157.891 169.924C158.77 170.536 159.209 171.48 159.209 172.756C159.209 173.648 158.88 174.338 158.223 174.826C157.572 175.314 156.94 175.598 156.328 175.676V175.705C156.921 175.744 157.617 176.044 158.418 176.604C159.219 177.163 159.619 177.954 159.619 178.977C159.619 180.174 159.131 181.145 158.154 181.887C157.178 182.629 155.566 183 153.32 183H149.512ZM151.582 180.617H153.008C154.388 180.617 155.326 180.497 155.82 180.256C156.322 180.015 156.572 179.527 156.572 178.791C156.572 178.101 156.283 177.626 155.703 177.365C155.13 177.098 154.232 176.965 153.008 176.965H151.582V180.617ZM151.582 174.66H152.861C153.701 174.66 154.486 174.514 155.215 174.221C155.951 173.928 156.318 173.472 156.318 172.854C156.318 172.372 156.113 172.007 155.703 171.76C155.299 171.506 154.352 171.379 152.861 171.379H151.582V174.66ZM162.891 183C162.435 183 162.207 182.756 162.207 182.268V169.729C162.207 169.24 162.435 168.996 162.891 168.996H166.299C169.294 168.996 171.318 169.602 172.373 170.812C173.434 172.023 173.965 173.745 173.965 175.979C173.965 178.212 173.434 179.94 172.373 181.164C171.318 182.388 169.294 183 166.299 183H162.891ZM165.059 180.578H166.113C168.132 180.578 169.437 180.204 170.029 179.455C170.622 178.7 170.918 177.541 170.918 175.979C170.918 174.416 170.622 173.264 170.029 172.521C169.437 171.773 168.132 171.398 166.113 171.398H165.059V180.578Z" fill="black"/>
</g>
<defs>
<clipPath id="clip0_102_2">
<rect width="185.5" height="186.3" fill="white"/>
</clipPath>
</defs>
</svg>
