<svg height="28.498004" viewBox="0 0 28.4995403 28.4980035" width="28.49954" xmlns="http://www.w3.org/2000/svg"><path d="m17.1511409 5.75586498 4.9370395-.00386844 1.5296187.01176621 1.0801939.02502346 1.0854825.04497516c1.4130925.0644625 2.4754331.27792783 3.4776297.66746925.9969868.3874473 1.794255.89936469 2.5660645 1.67111999.7716966.77169664 1.2836147 1.56896028 1.6710646 2.56595369.3895392 1.0023495.6030132 2.0646678.66747 3.477637l.0404932.9728025.0278167 1.0708057.0143172 1.8747258.0016686 1.2098274-.0038447 3.0539173-.0196794 1.7305892-.0334745 1.036183-.0272973.6186827c-.0644566 1.4129637-.2779306 2.475282-.6674692 3.4776299-.3874375.9969616-.899346 1.794237-1.6710776 2.5660771-.7718153.7717069-1.5690906 1.2836154-2.5660505 1.6710523-.9112267.3541266-1.8720145.5627447-3.100757.646176l-.9957116.0485969-1.1084681.0350312-2.248848.0202425-1.1519223.0017192-3.3178137-.0048887-1.3848341-.0168132-.8258386-.0242822-.910976-.0383118c-1.4129527-.0644562-2.4752626-.2779258-3.4776844-.6674693-.9969949-.3874505-1.79425848-.8993686-2.56596127-1.6710715-.77174903-.7718033-1.28366638-1.5690717-1.67110819-2.5660444-.38954684-1.0022108-.60301216-2.0645514-.66747448-3.4776404l-.03677899-.8569543-.01694802-.5140908-.02429813-1.5889077-.00522419-1.3093983.00539589-4.3633759.01770207-1.3082782.01707013-.5961762.04308107-1.0303612c.06446249-1.4130927.27792781-2.4754333.6674692-3.47763.38746025-.99702022.89938725-1.79427685 1.67111364-2.56594908.77168459-.77173887 1.56894115-1.28366591 2.56595207-1.67112262 1.0022798-.3895498 2.0646121-.60301083 3.47769-.66747266l1.1756813-.04792431 1.1381971-.02405358zm5.4702395 3.02075332h-5.2091762l-1.4348988.01725862-.9979676.03179275-.6256534.027559c-1.1265813.05141137-1.8520903.20561025-2.5205027.46531379-.621261.24145419-1.0582744.52575926-1.5236295.99106254-.46527096.4652709-.74958786.9023203-.99100753 1.5235743-.23611626.6075314-.38504176 1.2624192-.44879567 2.2229256l-.05762146 1.2754778-.02129231.7932746-.01709276 2.0342901.00511899 4.8106769.01112286.8674499.0204235.7681421.04276817 1.0403116c.05141373 1.1266332.2056408 1.852219.46537503 2.5205199.24139467.6212416.52569085 1.0582476.99100118 1.523558.4652996.4652996.9022883.7495771 1.5236289.9910622.6075432.2361209 1.2624214.3850348 2.2229267.4487527l.6836651.0337466 1.0166716.036633.6969591.0142281 1.9337485.0120599 4.3371631-.004009 1.3395579-.017765.4438218-.0123515 1.1380436-.0459812c1.126623-.0513681 1.8521959-.2055806 2.5204928-.4653133.6213533-.2414901 1.0583344-.5257701 1.5235847-.9910724.4652824-.4652306.7495625-.9022117.9910523-1.5235645.2361162-.6075313.3850418-1.2624192.4487954-2.222919l.0337457-.6837248.0366073-1.0168046.0142188-.6969877.0120533-1.9336034-.0021938-3.9834187-.0159461-1.5270973-.0210171-.7602061-.0408948-.9877869c-.0514138-1.1266332-.2056408-1.8522191-.4653659-2.5204964-.2415113-.621356-.525812-1.0583804-.991065-1.5235815-.465296-.46529605-.9023017-.74960364-1.5235518-.99105358-.6076686-.23610227-1.2625054-.38500321-2.2229627-.44875101l-.5820923-.02933692-.7557805-.03000301-1.1572001-.02663355zm-2.6216192 3.7836482c4.108662 0 7.4393835 3.3307569 7.4393835 7.4394936 0 4.1086448-3.330739 7.4393841-7.4393835 7.4393841-4.1087364 0-7.439493-3.3307218-7.439493-7.4393841 0-4.1087542 3.3307391-7.4394936 7.439493-7.4394936zm0 3.0226121c-2.4393943 0-4.4168811 1.977487-4.4168811 4.4168815 0 2.4393011 1.9775028 4.4167721 4.4168811 4.4167721 2.4392849 0 4.4167717-1.977487 4.4167717-4.4167721 0-2.4393785-1.9774708-4.4168815-4.4167717-4.4168815zm7.4734412-4.9866793c1.0659427 0 1.9300641.8640827 1.9300641 1.9300095 0 1.0659718-.8641117 1.9300642-1.9300641 1.9300642-1.0659523 0-1.930064-.8640924-1.930064-1.9300642 0-1.0659268.8641214-1.9300095 1.930064-1.9300095z" fill="#f00" transform="translate(-5.75046 -5.751997)"/></svg>